<?xml version="1.0" encoding="UTF-8"?>
<svg version="1.1" xmlns="http://www.w3.org/2000/svg" width="1500" height="1500">
<path d="M0 0 C495 0 990 0 1500 0 C1500 495 1500 990 1500 1500 C1005 1500 510 1500 0 1500 C0 1005 0 510 0 0 Z " fill="#4C9F38" transform="translate(0,0)"/>
<path d="M0 0 C9.85988273 5.99580385 14.58383174 22.26152503 19.4375 32.3125 C20.3417863 34.17659537 21.24641095 36.04052664 22.15136719 37.90429688 C27.04398903 47.98942698 31.91204306 58.08637111 36.72924805 68.20776367 C40.69384258 76.53410624 44.72151652 84.82944617 48.75 93.125 C53.27610693 102.44601873 57.79134808 111.77145886 62.25 121.125 C66.68886295 130.43636411 71.1826153 139.7204644 75.6875 149 C87.42150568 173.17431407 87.42150568 173.17431407 91.70776367 182.19189453 C93.83091731 186.6586163 95.97718422 191.09970797 98.265625 195.484375 C102.48259083 203.67375465 105.91613465 211.21666819 103.75 220.625 C101.63276603 225.44589604 98.72201653 228.53675968 93.875 230.625 C88.89443303 232.05206947 84.4707724 232.79412832 79.6262207 230.71240234 C72.20731558 226.28229612 69.40529462 220.36940868 65.875 212.6875 C65.27244482 211.42396738 64.66758992 210.16152912 64.06054688 208.90014648 C62.83937213 206.35246246 61.63231363 203.79888844 60.43847656 201.23828125 C58.94585264 198.04411786 57.4305733 194.86284327 55.8984375 191.6875 C54.11489596 187.98838726 52.34291006 184.28417408 50.58203125 180.57421875 C47.39605767 173.8688689 44.16787755 167.18404032 40.9375 160.5 C40.34243478 159.26831689 39.74738274 158.03662742 39.15234375 156.80493164 C37.9511765 154.31876674 36.74981025 151.8326981 35.54833984 149.34667969 C33.7774021 145.68208374 32.00763822 142.0169219 30.23828125 138.3515625 C29.80599464 137.45605179 29.80599464 137.45605179 29.36497498 136.54244995 C28.2032202 134.13572428 27.04151738 131.72897355 25.87985229 129.32220459 C22.92886339 123.20831103 19.97744192 117.09462982 17.02255249 110.98262024 C9.88498238 96.21884879 2.77770231 81.44146916 -4.25 66.625 C-6.44939478 69.92409217 -7.32088384 72.74250745 -8.45703125 76.5390625 C-8.66262665 77.22125854 -8.86822205 77.90345459 -9.08004761 78.60632324 C-9.74569175 80.81946684 -10.40417278 83.03467004 -11.0625 85.25 C-11.51953468 86.77469782 -11.97697355 88.29927455 -12.43481445 89.82373047 C-14.97795467 98.30359853 -17.4912569 106.79223354 -19.97045898 115.29101562 C-21.4075989 120.18385178 -22.89756564 125.06029183 -24.38671875 129.9375 C-28.05628185 141.97613943 -31.7017647 154.02197776 -35.33935547 166.0703125 C-36.38056153 169.51841781 -37.42269491 172.96624204 -38.46484375 176.4140625 C-41.55210414 186.6345946 -44.62861021 196.85745762 -47.62846375 207.10401917 C-49.27549168 212.7274274 -50.97096481 218.33498413 -52.6875 223.9375 C-54.82975513 230.95325524 -56.96076461 237.9719983 -59.0625 245 C-61.56808909 253.37800926 -64.10507281 261.74637933 -66.64523315 270.11395264 C-72.76492527 290.22565928 -72.76492527 290.22565928 -78.59765625 310.421875 C-81.19165789 319.65212422 -83.91384117 328.81791283 -86.875 337.9375 C-90.55738362 349.28588699 -94.01720801 360.69535914 -97.4375 372.125 C-97.68953186 372.9667276 -97.94156372 373.8084552 -98.20123291 374.6756897 C-100.51217308 382.39857924 -102.81358599 390.12408658 -105.07719421 397.86099243 C-107.77161538 407.06731491 -110.55869139 416.24415403 -113.35839844 425.41894531 C-116.3718966 435.29671934 -119.35447313 445.18386187 -122.33935547 455.0703125 C-123.38056153 458.51841781 -124.42269491 461.96624204 -125.46484375 465.4140625 C-129.67663366 479.35471802 -129.67663366 479.35471802 -133.8046875 493.3203125 C-136.25640598 501.7067443 -138.808287 510.06200091 -141.35839844 518.41894531 C-144.3718966 528.29671934 -147.35447313 538.18386187 -150.33935547 548.0703125 C-151.38056153 551.51841781 -152.42269491 554.96624204 -153.46484375 558.4140625 C-157.67663366 572.35471802 -157.67663366 572.35471802 -161.8046875 586.3203125 C-164.25640598 594.7067443 -166.808287 603.06200091 -169.35839844 611.41894531 C-172.3718966 621.29671934 -175.35447313 631.18386187 -178.33935547 641.0703125 C-179.38056153 644.51841781 -180.42269491 647.96624204 -181.46484375 651.4140625 C-185.46998013 664.67294616 -189.46409033 677.9344249 -193.29101562 691.24609375 C-195.15625177 697.62609539 -196.90124798 701.55994846 -202.25 705.625 C-206.71058073 707.75832122 -211.36034068 708.49651526 -216.25 707.625 C-221.60764272 705.49580742 -225.13018598 702.30878464 -228.07446289 697.390625 C-230.77630376 691.03414455 -231.38442693 683.91908438 -232.375 677.125 C-232.73312864 674.7847727 -233.09643094 672.44538583 -233.45993042 670.10598755 C-233.70014613 668.55641417 -233.93820474 667.00650486 -234.17410278 665.45626831 C-235.16092809 659.0165755 -236.34089506 652.62331061 -237.56689453 646.22558594 C-238.49589211 641.32892538 -239.32048855 636.41837965 -240.125 631.5 C-240.46482703 629.44530973 -240.80467167 627.39062238 -241.14453125 625.3359375 C-241.51311797 623.09897434 -241.88160233 620.8619943 -242.25 618.625 C-245.71595745 597.45625096 -245.71595745 597.45625096 -249.56640625 576.35546875 C-250.53543719 571.06732846 -251.35857723 565.75843202 -252.16064453 560.44262695 C-252.89100645 555.66099005 -253.77666324 550.93206771 -254.7434082 546.19287109 C-255.61589345 541.77031695 -256.33416859 537.32317309 -257.0625 532.875 C-257.41144347 530.76562254 -257.76040257 528.65624767 -258.109375 526.546875 C-258.48969477 524.2396017 -258.86989783 521.93230916 -259.25 519.625 C-262.71604442 498.4562669 -262.71604442 498.4562669 -266.56640625 477.35546875 C-267.53543719 472.06732846 -268.35857723 466.75843202 -269.16064453 461.44262695 C-269.75626498 457.54313458 -270.42495924 453.67687561 -271.21875 449.8125 C-272.39126259 444.06924147 -273.28863256 438.29136369 -274.1875 432.5 C-275.5939987 423.57850058 -277.11870169 414.70260321 -278.83056641 405.83447266 C-279.72868777 401.10339096 -280.57892953 396.36338696 -281.4375 391.625 C-281.61667969 390.63733643 -281.79585937 389.64967285 -281.98046875 388.63208008 C-282.40403693 386.2964573 -282.82722373 383.96076623 -283.25 381.625 C-283.97364746 382.99712646 -283.97364746 382.99712646 -284.71191406 384.39697266 C-296.00232653 405.79762002 -307.30958445 427.17947615 -319.24707031 448.22851562 C-321.29223645 451.85565045 -323.23027023 455.51118911 -325.0625 459.25 C-328.25381614 465.75470448 -331.74493779 472.08439969 -335.22924805 478.43505859 C-339.16771673 485.6208892 -343.04913617 492.83585154 -346.9078064 500.06469727 C-349.10570251 504.17851411 -351.31317331 508.28720152 -353.51953125 512.39648438 C-354.61918872 514.44810266 -355.71588727 516.50131177 -356.80859375 518.55664062 C-358.15391799 521.08504811 -359.51230057 523.6059272 -360.875 526.125 C-361.44081787 527.20056152 -361.44081787 527.20056152 -362.01806641 528.29785156 C-364.70023702 533.20771052 -367.61466178 536.11909245 -372.4375 538.875 C-378.1430924 540.39649131 -383.32966432 540.62072961 -388.625 537.875 C-400.20823696 527.94651118 -399.51773985 509.66683547 -401.54296875 495.1875 C-401.85264671 493.00085369 -402.16280761 490.81427573 -402.47341919 488.62776184 C-403.12810537 484.01333797 -403.77992754 479.39852305 -404.42935181 474.78335571 C-405.94985801 463.97929304 -407.48521718 453.17733642 -409.0192852 442.37519264 C-409.52139302 438.83861894 -410.02293506 435.30196532 -410.52442932 431.76530457 C-412.81147097 415.64698191 -415.14596599 399.53697488 -417.5625 383.4375 C-419.73784367 368.94417567 -421.8553418 354.44389864 -423.9140625 339.93359375 C-424.14639137 338.2977133 -424.37872677 336.66183379 -424.61106873 335.0259552 C-425.64187262 327.76448984 -426.67030295 320.50271032 -427.69039536 313.23973179 C-428.10794602 310.27133875 -428.52823599 307.30333785 -428.9491539 304.33542061 C-429.14594158 302.94301777 -429.34145535 301.55043424 -429.53564835 300.15766716 C-429.80242068 298.24496688 -430.07381437 296.33291283 -430.34545898 294.42089844 C-430.49675766 293.34467224 -430.64805634 292.26844604 -430.80393982 291.15960693 C-431.12277245 288.64160597 -431.12277245 288.64160597 -432.25 286.625 C-441.3333538 306.70476122 -450.36265176 326.80510787 -459.1875 347 C-466.23402591 363.12302415 -473.42684106 379.17589036 -480.70678711 395.19482422 C-481.07942184 396.0153125 -481.45205658 396.83580078 -481.83598328 397.68115234 C-482.56859968 399.29252348 -483.30271224 400.90321531 -484.03840637 402.51318359 C-485.87616683 406.54548917 -487.67222529 410.58993833 -489.40527344 414.66845703 C-489.7562912 415.48572769 -490.10730896 416.30299835 -490.46896362 417.14503479 C-491.12877049 418.68626012 -491.77918948 420.23155492 -492.41799927 421.78160095 C-495.13326895 428.09321464 -498.9076165 432.67344749 -505.25 435.625 C-508.67602561 436.06787356 -512.07915206 436.02957552 -515.52964783 436.00595093 C-516.57507596 436.0106309 -517.62050409 436.01531087 -518.69761187 436.02013266 C-522.20600708 436.03211315 -525.71401389 436.0226132 -529.22241211 436.01318359 C-531.73555225 436.01724795 -534.2486906 436.02258906 -536.76182556 436.02911377 C-542.88267464 436.04138698 -549.00337954 436.03957147 -555.12423056 436.03087585 C-560.09927919 436.02410067 -565.0742969 436.02318186 -570.04934883 436.0264473 C-571.11147287 436.02713684 -571.11147287 436.02713684 -572.19505395 436.02784032 C-573.63352391 436.0287995 -575.07199385 436.02977214 -576.51046378 436.0307581 C-590.00008692 436.03931334 -603.4896489 436.02947609 -616.979262 436.013357 C-628.55187914 435.99995658 -640.12440598 436.00227935 -651.69702148 436.01611328 C-665.13682417 436.03217174 -678.57657324 436.0384863 -692.01638418 436.02927649 C-693.44986792 436.02832085 -694.88335166 436.02737774 -696.3168354 436.0264473 C-697.02212842 436.02598447 -697.72742144 436.02552164 -698.45408697 436.02504479 C-703.42216765 436.02245548 -708.39021431 436.02682468 -713.35828972 436.03388596 C-720.04694513 436.04318375 -726.73540372 436.03655353 -733.42405128 436.01920319 C-735.88068229 436.01523236 -738.33732762 436.01638253 -740.79395294 436.02299118 C-744.14395284 436.031173 -747.49340373 436.02092506 -750.84336853 436.00595093 C-751.81856365 436.01264309 -752.79375876 436.01933526 -753.79850525 436.02623022 C-759.03670525 435.98072815 -762.73814771 435.58799591 -767.25 432.625 C-771.84782312 427.81818492 -774.0372008 424.30626986 -774.5625 417.6875 C-774.39957416 412.86308475 -773.04431603 409.47565928 -769.6328125 405.95703125 C-765.21584953 401.96659904 -762.03725767 400.50842674 -756.04087448 400.4863348 C-755.20386214 400.48086036 -754.3668498 400.47538591 -753.50447345 400.46974558 C-752.59007912 400.46876747 -751.67568479 400.46778936 -750.73358154 400.46678162 C-749.75827838 400.46184364 -748.78297522 400.45690566 -747.77811742 400.45181805 C-744.50149408 400.43642791 -741.22489036 400.42807829 -737.94824219 400.41967773 C-735.60285265 400.41010041 -733.25746484 400.40009041 -730.91207886 400.38967896 C-724.53649705 400.36260811 -718.16090783 400.34161032 -711.78530025 400.32167697 C-705.79994554 400.30204323 -699.8146098 400.27789125 -693.82927194 400.25375474 C-681.97408466 400.20609491 -670.11888558 400.16282636 -658.26367188 400.12231445 C-646.74738649 400.08295134 -635.23111159 400.04152316 -623.71484375 399.99731445 C-622.65006267 399.99322804 -622.65006267 399.99322804 -621.56377086 399.98905908 C-618.00264431 399.97537947 -614.44151792 399.96165922 -610.8803916 399.94791877 C-581.33694991 399.83397927 -551.79348453 399.7272374 -522.25 399.625 C-519.6449187 393.87011324 -517.04028743 388.11502294 -514.43595028 382.35979939 C-513.55228589 380.40715914 -512.66852329 378.45456333 -511.78465557 376.50201511 C-505.57914744 362.79322439 -499.40413452 349.07233211 -493.3125 335.3125 C-492.4877933 333.45305266 -491.66291743 331.59368033 -490.83789062 329.734375 C-489.14666507 325.92264365 -487.45612135 322.11061113 -485.76611328 318.29833984 C-483.26254852 312.65193774 -480.75495539 307.00733149 -478.24609375 301.36328125 C-477.83325134 300.43449158 -477.42040894 299.5057019 -476.99505615 298.54876709 C-474.92346631 293.88857473 -472.85135343 289.22861537 -470.77880859 284.56884766 C-466.90031761 275.84726391 -463.02617144 267.12382927 -459.16720581 258.39358521 C-457.36047628 254.30688826 -455.55129894 250.22127703 -453.74194336 246.13574219 C-452.88688343 244.20317551 -452.03299967 242.27008791 -451.18041992 240.33642578 C-436.59994771 207.27025795 -436.59994771 207.27025795 -431.33203125 204.26171875 C-425.4418354 202.46040182 -418.77215133 202.40861008 -413.25 205.3125 C-406.60877434 210.43177812 -405.4310679 214.91136913 -404.29394531 222.89990234 C-404.13221455 223.94887381 -403.97048378 224.99784527 -403.80385208 226.07860374 C-403.26821395 229.59166536 -402.75769239 233.10779747 -402.25 236.625 C-401.88284385 239.11211557 -401.51544729 241.59919565 -401.14782715 244.08624268 C-400.03054703 251.70873684 -398.94628251 259.33572207 -397.86736584 266.96372652 C-397.31688115 270.85044157 -396.76277722 274.73664076 -396.20904541 278.62289429 C-395.03906404 286.83789097 -393.87255873 295.0533783 -392.70684814 303.26898193 C-390.74940023 317.06417445 -388.78803652 330.85881086 -386.82406235 344.6530757 C-386.59768177 346.2431881 -386.37134558 347.83330682 -386.14505386 349.42343187 C-382.33881576 376.16857918 -378.43352954 402.89739407 -374.44029617 429.61533737 C-372.65061135 441.60996707 -370.93392118 453.61508249 -369.25 465.625 C-368.79898926 464.75270752 -368.79898926 464.75270752 -368.33886719 463.86279297 C-362.30628838 452.21029475 -356.19669896 440.60817892 -349.88916016 429.10205078 C-346.01965998 422.04311415 -342.18807118 414.96457405 -338.375 407.875 C-337.79065186 406.78872314 -337.20630371 405.70244629 -336.60424805 404.58325195 C-335.41485716 402.37167985 -334.225649 400.16000947 -333.03662109 397.94824219 C-325.10109722 383.1876039 -317.16493074 368.42728919 -309.16186523 353.703125 C-306.57113429 348.93216207 -303.99447034 344.15470866 -301.45422363 339.35662842 C-300.50603504 337.56608398 -299.55512101 335.77701178 -298.60351562 333.98828125 C-297.39852238 331.72050681 -296.19899352 329.44981743 -295.00585938 327.17578125 C-287.08331892 312.2989074 -287.08331892 312.2989074 -280.25 309.625 C-272.96594561 308.82185771 -267.56491659 309.27721988 -261.6640625 313.85546875 C-256.36226083 318.88571472 -255.67323782 325.35314163 -254.61523438 332.26074219 C-254.2220104 334.80618402 -253.79364745 337.3440594 -253.359375 339.8828125 C-252.49298789 344.97234524 -251.6524802 350.06581455 -250.81787109 355.16064453 C-249.78147778 361.48326757 -248.73634178 367.80443099 -247.6875 374.125 C-247.47383789 375.4126123 -247.26017578 376.70022461 -247.04003906 378.02685547 C-245.76302646 385.67804181 -244.39854374 393.30137149 -242.9296875 400.91796875 C-241.9936655 406.02305424 -241.1959676 411.1472723 -240.42724609 416.2800293 C-239.57042084 421.90333703 -238.53281479 427.48472898 -237.47200012 433.07292175 C-236.01064253 440.81612165 -234.69109656 448.58246537 -233.37545776 456.35153198 C-232.9235593 459.01981433 -232.46992609 461.68779705 -232.01586914 464.35571289 C-231.39222363 468.02058288 -230.76910048 471.68554093 -230.14648438 475.35058594 C-228.83161926 483.08871152 -227.511544 490.82593999 -226.1875 498.5625 C-226.06579437 499.27429413 -225.94408875 499.98608826 -225.81869507 500.7194519 C-224.48697309 508.50335197 -223.13942332 516.28407528 -221.75390625 524.05859375 C-221.62981888 524.7551709 -221.50573151 525.45174805 -221.37788391 526.16943359 C-221.12707525 527.5771281 -220.87626653 528.9848226 -220.62545776 530.39251709 C-220.5015567 531.08798645 -220.37765564 531.78345581 -220.25 532.5 C-220.12682404 533.19095764 -220.00364807 533.88191528 -219.8767395 534.59381104 C-217.84317294 546.02369101 -215.95998213 557.47421585 -214.125 568.9375 C-212.49627803 579.10251575 -210.85005009 589.25852248 -208.9375 599.375 C-208.77813965 600.22618408 -208.6187793 601.07736816 -208.45458984 601.9543457 C-208.0099053 605.59332974 -208.0099053 605.59332974 -206.25 608.625 C-206.06509506 608.01208603 -205.88019012 607.39917206 -205.68968201 606.76768494 C-203.72631668 600.2598174 -201.76255447 593.7520697 -199.79858398 587.24438477 C-199.07029661 584.83100266 -198.34210312 582.41759222 -197.61401367 580.00415039 C-194.04907493 568.18744868 -190.48108177 556.37181567 -186.87890625 544.56640625 C-182.112813 528.93631558 -177.43898025 513.27835081 -172.75 497.625 C-170.9276768 491.54148871 -169.10499076 485.4580865 -167.28125 479.375 C-167.05936508 478.63487671 -166.83748016 477.89475342 -166.60887146 477.13220215 C-163.74032936 467.56614906 -160.85112936 458.00668635 -157.93481445 448.45507812 C-155.3372363 439.93604964 -152.77632708 431.40609972 -150.21875 422.875 C-149.99714706 422.13584351 -149.77554413 421.39668701 -149.54722595 420.63513184 C-147.94749524 415.29861755 -146.34865582 409.96183638 -144.75 404.625 C-142.9276768 398.54148871 -141.10499076 392.4580865 -139.28125 386.375 C-139.05936508 385.63487671 -138.83748016 384.89475342 -138.60887146 384.13220215 C-135.74032936 374.56614906 -132.85112936 365.00668635 -129.93481445 355.45507812 C-127.3372363 346.93604964 -124.77632708 338.40609972 -122.21875 329.875 C-121.99714706 329.13584351 -121.77554413 328.39668701 -121.54722595 327.63513184 C-119.94749524 322.29861755 -118.34865582 316.96183638 -116.75 311.625 C-114.9276768 305.5414887 -113.10497794 299.45809035 -111.28125 293.375 C-111.05936508 292.63485594 -110.83748016 291.89471188 -110.60887146 291.13213921 C-108.00805935 282.45862548 -105.39488775 273.78910165 -102.75 265.12890625 C-99.87324182 255.70906325 -97.04191342 246.27585022 -94.21875 236.83984375 C-93.77015219 235.34103077 -93.32154375 233.84222096 -92.8729248 232.34341431 C-91.0359641 226.20546482 -89.1993344 220.06741769 -87.36572266 213.9284668 C-86.00623042 209.37749304 -84.64478784 204.82710705 -83.28125 200.27734375 C-82.95216141 199.17917674 -82.95216141 199.17917674 -82.61642456 198.05882454 C-79.66309308 188.21405795 -76.64918817 178.39234258 -73.46789551 168.61827087 C-71.55803349 162.72674082 -69.87204092 156.78927695 -68.25 150.8125 C-64.65276257 137.71349335 -60.67093202 124.73576068 -56.6875 111.75 C-56.36612061 110.70145844 -56.04474121 109.65291687 -55.71362305 108.57260132 C-52.51642134 98.14858686 -49.2933135 87.73410358 -45.98828125 77.34375 C-43.8460492 70.59888072 -41.84930837 63.83172741 -40 57 C-37.3403513 47.39843826 -34.61189124 37.81777926 -31.77648926 28.2666626 C-31.34696379 26.81346293 -30.92165085 25.35901057 -30.50085449 23.90325928 C-25.05292482 5.08902403 -25.05292482 5.08902403 -18.0625 0.125 C-12.32741791 -2.66773563 -5.84277483 -2.34604726 0 0 Z " fill="#FDFEFD" transform="translate(1018.25,565.375)"/>
<path d="M0 0 C0.90878906 0.43570313 1.81757812 0.87140625 2.75390625 1.3203125 C16.70451606 8.42173557 28.15970249 19.88718105 39 31 C42.98216066 29.42392236 45.44795861 26.61666663 48.3125 23.5625 C61.04489119 10.44162246 79.42720002 -3.87018282 98.43066406 -4.24145508 C114.58861677 -4.30817621 129.80753957 0.01173319 142 11 C142.82371094 11.73089844 143.64742187 12.46179688 144.49609375 13.21484375 C160.60819264 28.34599294 167.42838251 49.16785813 168.50634766 70.82495117 C169.0581862 94.04295813 159.07933006 113.99771646 143.50675774 130.66917992 C140.80932194 133.43425064 138.08158068 136.1667596 135.33959961 138.88745117 C134.30337206 139.92311281 133.2675882 140.95921853 132.23220825 141.99572754 C129.45422904 144.77427426 126.67018269 147.54666528 123.88489985 150.31788802 C120.96249124 153.22768746 118.04584759 156.14325448 115.1285553 159.05818176 C109.6186032 164.56194875 104.10357875 170.06060308 98.58665615 175.55738193 C92.29962516 181.82196084 86.01835736 188.09230501 79.73753726 194.36310995 C66.83137069 207.24844188 53.91808138 220.12661372 41 233 C37.46471521 231.4897336 35.17967388 229.43549293 32.46598816 226.7334137 C31.56187698 225.83783249 30.65776581 224.94225128 29.72625732 224.01953125 C28.73170323 223.02427813 27.73726118 222.02891303 26.74291992 221.03344727 C25.69006003 219.98657328 24.63679134 218.94011029 23.58314514 217.89402771 C20.72272866 215.05128167 17.86883459 212.20207326 15.01660323 209.35111737 C13.23132137 207.56725819 11.44462243 205.78483129 9.65740395 204.00291252 C3.41325375 197.77727292 -2.82569956 191.54647919 -9.05981445 185.31079102 C-14.85482164 179.5145853 -20.66085602 173.72959385 -26.4722603 167.9498325 C-31.47153444 162.97680348 -36.46297128 157.99599789 -41.44850272 153.00919193 C-44.42138573 150.03580128 -47.39722544 147.06553324 -50.38099098 144.10305977 C-53.19299852 141.3105711 -55.99503353 138.50843157 -58.79006386 135.69895363 C-59.81083837 134.67610606 -60.83495722 133.65658197 -61.86285019 132.64088821 C-77.65901069 117.01993866 -87.94038108 97.44236844 -88.19067383 74.91333008 C-88.15627426 52.14346173 -81.81052521 31.86122467 -66 15 C-49.1781691 -1.25071936 -22.19632064 -11.29101935 0 0 Z " fill="#FEFEFE" transform="translate(1090,866)"/>
<path d="M0 0 C1.06605469 0.36222656 2.13210937 0.72445312 3.23046875 1.09765625 C19.14334708 7.04733826 30.18809726 18.19677254 38 33 C47.14227872 53.45469431 48.91492856 80.84150084 41 102 C35.69425528 115.15662301 28.89031085 125.94011435 16.06640625 132.84375 C13.86767683 133.95112809 13.86767683 133.95112809 12 136 C12.78503906 136.42410156 13.57007813 136.84820312 14.37890625 137.28515625 C30.06760712 146.04387882 37.93785676 158.1237187 42.9765625 175.3359375 C49.46023867 203.75504145 46.06116343 237.75224056 31 263 C21.21674415 277.30162703 7.228714 286.87836456 -9.8671875 290.34375 C-32.48671477 293.85123818 -60.34831789 293.03259596 -79.84765625 280.11328125 C-95.92606907 267.76952239 -105.08413171 248.88092014 -108 229 C-109.0265155 217.70832955 -109 206.33823423 -109 195 C-90.85 195 -72.7 195 -54 195 C-53.505 207.375 -53.505 207.375 -53 220 C-50.00246428 233.82562033 -50.00246428 233.82562033 -41 243 C-34.68389617 245.12781323 -26.63326466 245.11701331 -20.5 242.5 C-15.148228 239.35777702 -13.77386472 234.19940498 -11.8125 228.625 C-7.87183425 211.04356818 -6.69822711 185.51426541 -16.625 169.796875 C-20.94504078 164.15136716 -25.06673241 162.59997535 -32 160 C-38.27 159.34 -44.54 158.68 -51 158 C-51 144.8 -51 131.6 -51 118 C-43.08 117.505 -43.08 117.505 -35 117 C-26.8945939 115.10873858 -19.95210104 112.72562716 -15.16796875 105.40234375 C-7.34307412 89.30766081 -8.07775029 68.83366784 -13 52 C-14.45075968 47.80891648 -16.53659742 44.9490012 -20.3125 42.5625 C-26.39088546 39.91823062 -33.54618711 40.04387957 -40 41 C-45.78698621 43.98501478 -48.94885008 47.85872571 -51.01171875 54.0234375 C-53.49188693 66.32392478 -53.45552273 76.93254557 -54 90 C-72.15 90 -90.3 90 -109 90 C-109.04125 85.2975 -109.0825 80.595 -109.125 75.75 C-109.14320801 74.29303711 -109.16141602 72.83607422 -109.18017578 71.33496094 C-109.2654339 51.05453017 -104.17503283 31.08823124 -89.99609375 15.8671875 C-67.11496004 -5.53629961 -29.14812341 -10.64691933 0 0 Z " fill="#FEFEFD" transform="translate(226,129)"/>
<path d="M0 0 C44.109375 0 44.109375 0 52.72265625 7.5 C60.61002825 15.87185431 60.47538999 25.95363017 60.46875 36.89453125 C60.47586912 38.3326598 60.48357061 39.77078558 60.49182129 41.20890808 C60.50520392 44.21202501 60.50686359 47.21487934 60.50097656 50.21801758 C60.49509178 54.03409918 60.52564855 57.84890353 60.56609344 61.66473866 C60.59216279 64.63252851 60.59483058 67.6000188 60.59120178 70.56790733 C60.59287571 71.97310273 60.60234844 73.37831463 60.62034607 74.78339577 C60.73171517 84.55269407 59.94483313 94.34660432 53.22668457 102.02742004 C38.87533436 115.26541687 18.03338536 110 0 110 C0 73.7 0 37.4 0 0 Z " fill="#FEFEFD" transform="translate(661,128)"/>
<path d="M0 0 C0.70801758 0.00008057 1.41603516 0.00016113 2.14550781 0.00024414 C4.26128283 -0.00190895 6.37650725 -0.01995985 8.4921875 -0.0390625 C32.51858605 -0.14065066 32.51858605 -0.14065066 41.18359375 7.79101562 C47.0636284 14.20946308 47.81077985 20.62446907 47.8671875 29.06054688 C47.90005859 29.92035156 47.93292969 30.78015625 47.96679688 31.66601562 C48.0203352 38.08088006 46.47836465 42.20060832 42.4296875 47.18554688 C39.9944787 49.40588431 38.57503565 50.13709749 35.4296875 51.18554688 C36.20892578 51.62253906 36.20892578 51.62253906 37.00390625 52.06835938 C43.48562625 55.87831679 48.45712529 60.20536025 50.921875 67.59960938 C53.12128046 78.79965874 51.93245496 90.33828012 46.21484375 100.30273438 C42.24900949 105.65948443 36.74673146 108.42600495 30.4296875 110.18554688 C23.23922613 110.99296267 15.96136728 110.65836554 8.7421875 110.49804688 C6.76890856 110.47292505 4.79559871 110.45011876 2.82226562 110.4296875 C-1.97603345 110.37501783 -6.77282659 110.28896154 -11.5703125 110.18554688 C-11.59364279 95.99098646 -11.6112259 81.796429 -11.62212467 67.60185337 C-11.62735422 61.01149902 -11.63445317 54.42115751 -11.64575195 47.83081055 C-11.65657828 41.47662669 -11.66258879 35.12245522 -11.66518974 28.76826286 C-11.66704445 26.33805076 -11.67066593 23.90783938 -11.67604256 21.47763252 C-11.68324961 18.08671706 -11.68430358 14.69585347 -11.68383789 11.30493164 C-11.68743317 10.28929642 -11.69102844 9.27366119 -11.69473267 8.22724915 C-11.693358 7.30873169 -11.69198334 6.39021423 -11.69056702 5.44386292 C-11.69148881 4.64098123 -11.6924106 3.83809954 -11.69336033 3.0108881 C-11.35677784 -1.98211253 -3.82579503 0.01380433 0 0 Z " fill="#F9FCF9" transform="translate(502.5703125,306.814453125)"/>
<path d="M0 0 C42.54545455 0 42.54545455 0 52.6875 7.4375 C60.2500159 15.0000159 60.30651857 22.20137781 60.31469727 32.35205078 C60.19924229 39.89283221 59.50370766 46.16074796 54.24609375 51.921875 C49.76576835 56 49.76576835 56 47 56 C47.32871094 56.80824219 47.32871094 56.80824219 47.6640625 57.6328125 C51.25224123 66.93873944 53.67292321 76.55310771 56.23876953 86.17871094 C56.97253417 88.89820553 57.72851254 91.61018772 58.49609375 94.3203125 C58.84522827 95.55479126 58.84522827 95.55479126 59.20141602 96.81420898 C59.64053368 98.36138652 60.08230114 99.9078152 60.52709961 101.45336914 C61.35953625 104.40116607 62 106.91994636 62 110 C55.4 110 48.8 110 42 110 C40.76732298 106.30196893 39.62723112 102.76691383 38.66796875 99.015625 C38.30952881 97.6248877 38.30952881 97.6248877 37.94384766 96.20605469 C37.56945557 94.74280762 37.56945557 94.74280762 37.1875 93.25 C35.05413769 84.96784577 32.84969773 76.71309877 30.47338867 68.49707031 C29.63826288 65.56256462 29 63.06857193 29 60 C26.03 60 23.06 60 20 60 C20 76.5 20 93 20 110 C13.4 110 6.8 110 0 110 C0 73.7 0 37.4 0 0 Z " fill="#FCFDFB" transform="translate(981,307)"/>
<path d="M0 0 C3.35286458 0.03255208 6.70572917 0.06510417 10.05859375 0.09765625 C15.44785809 10.50994451 20.18513769 21.11417247 24.74609375 31.91015625 C25.72685799 34.22044944 26.70887495 36.53020579 27.69136047 38.83976746 C28.29484461 40.2595627 28.89715531 41.67985762 29.49797058 43.1007843 C31.62771888 48.12820877 33.84007657 53.10599259 36.05859375 58.09765625 C36.38859375 38.95765625 36.71859375 19.81765625 37.05859375 0.09765625 C42.66859375 0.09765625 48.27859375 0.09765625 54.05859375 0.09765625 C54.05859375 36.39765625 54.05859375 72.69765625 54.05859375 110.09765625 C49.43859375 110.09765625 44.81859375 110.09765625 40.05859375 110.09765625 C37.94317654 105.08936413 35.8294355 100.08036858 33.71704102 95.07080078 C33.00294838 93.37791286 32.28845028 91.6851959 31.57348633 89.99267578 C25.97226588 76.73183586 20.50963354 63.42242018 15.05859375 50.09765625 C14.72859375 69.89765625 14.39859375 89.69765625 14.05859375 110.09765625 C8.11859375 110.09765625 2.17859375 110.09765625 -3.94140625 110.09765625 C-3.96452639 95.90309525 -3.98231965 81.7085387 -3.99321842 67.51396275 C-3.99844797 60.9236084 -4.00554692 54.33326688 -4.0168457 47.74291992 C-4.02767203 41.38873607 -4.03368254 35.0345646 -4.03628349 28.68037224 C-4.0381382 26.25016014 -4.04175968 23.81994876 -4.04713631 21.3897419 C-4.05434336 17.99882644 -4.05539733 14.60796284 -4.05493164 11.21704102 C-4.05852692 10.20140579 -4.06212219 9.18577057 -4.06582642 8.13935852 C-4.06445175 7.22084106 -4.06307709 6.30232361 -4.06166077 5.35597229 C-4.06258256 4.5530906 -4.06350435 3.75020891 -4.06445408 2.92299747 C-3.85431144 -0.19434344 -3.16439426 0.10505957 0 0 Z " fill="#F9FCF8" transform="translate(662.94140625,306.90234375)"/>
<path d="M0 0 C6.27 0 12.54 0 19 0 C19.01458252 2.49747803 19.02916504 4.99495605 19.04418945 7.56811523 C19.09464504 15.84233661 19.16125932 24.11637196 19.23571491 32.39041042 C19.28034219 37.40438145 19.31961506 42.41827265 19.34643555 47.43237305 C19.37254488 52.27602084 19.41300095 57.11936018 19.46318626 61.96281624 C19.4798035 63.80582896 19.49134968 65.64889498 19.49761391 67.49197197 C19.50731125 70.08408417 19.53543653 72.67541636 19.56762695 75.26733398 C19.56547432 76.39699081 19.56547432 76.39699081 19.5632782 77.54946899 C19.65764701 82.96225929 20.5459843 88.12082127 23 93 C27.02943506 95.68629004 30.26860501 95.66856668 35 95 C38.44146058 92.8821781 38.92429888 91.25450496 40.07772827 87.37670898 C41.10367332 83.04531708 41.30602329 78.90943752 41.31884766 74.47265625 C41.33391609 73.2565844 41.33391609 73.2565844 41.34928894 72.01594543 C41.37991557 69.36480347 41.39709841 66.71376151 41.4140625 64.0625 C41.4327907 62.21304476 41.45236533 60.36359791 41.4727478 58.51416016 C41.52390054 53.66783618 41.56361613 48.82148455 41.60089111 43.97503662 C41.64103688 39.02104954 41.69208081 34.06717582 41.7421875 29.11328125 C41.83874706 19.40892619 41.92220696 9.70452366 42 0 C48.27 0 54.54 0 61 0 C61.04524972 11.20522237 61.0819156 22.41038368 61.10362434 33.61567688 C61.11404534 38.81917729 61.12817378 44.02261176 61.15087891 49.22607422 C61.17266733 54.2511052 61.18458129 59.27607288 61.18975449 64.30114746 C61.19343948 66.21481319 61.20063529 68.1284756 61.21146011 70.04211426 C61.22605477 72.72997426 61.22797461 75.41757527 61.22705078 78.10546875 C61.23424133 78.89022079 61.24143188 79.67497284 61.24884033 80.48350525 C61.21676767 89.1514074 59.14114256 96.91063499 54 104 C46.32994711 111.38332194 37.35267714 111.44098883 27.26782227 111.43603516 C18.29148355 111.26136046 12.95093089 109.34970228 6.125 103.5625 C-1.51389312 92.82383617 -0.53592941 78.2950208 -0.390625 65.8203125 C-0.38314653 63.91218667 -0.37746121 62.00405306 -0.37347412 60.09591675 C-0.35834403 55.12117576 -0.31917412 50.14691649 -0.2746582 45.17236328 C-0.23343003 40.07721469 -0.21540481 34.98198677 -0.1953125 29.88671875 C-0.152665 19.92423557 -0.08242158 9.96223357 0 0 Z " fill="#FDFEFD" transform="translate(585,128)"/>
<path d="M0 0 C6.93 0 13.86 0 21 0 C22.25378715 4.38825501 23.39309453 8.56766748 24.30932617 13.0065918 C24.54706757 14.15232666 24.78480896 15.29806152 25.02975464 16.47851562 C25.40754562 18.32026367 25.40754562 18.32026367 25.79296875 20.19921875 C26.06264881 21.5050028 26.33252001 22.81074739 26.60256958 24.11645508 C27.32018828 27.59051426 28.03413111 31.06531825 28.74692154 34.54037094 C29.18759986 36.68798666 29.62912562 38.83542653 30.07089233 40.9828186 C33.54457023 57.87232943 37.00054425 74.76540802 40.3125 91.6875 C40.45706635 92.42044281 40.60163269 93.15338562 40.75057983 93.90853882 C41.1465664 95.92126677 41.53637467 97.93520741 41.92578125 99.94921875 C42.13630127 101.03549561 42.34682129 102.12177246 42.5637207 103.2409668 C43 106 43 106 43 110 C36.73 110 30.46 110 24 110 C23.505 107.545625 23.01 105.09125 22.5 102.5625 C22.34337891 101.80912354 22.18675781 101.05574707 22.02539062 100.27954102 C20.98455465 94.92047483 21 90.66878985 21 85 C14.4 85 7.8 85 1 85 C0.896875 86.8975 0.79375 88.795 0.6875 90.75 C0.18752163 97.44823964 -1.20839166 103.53463079 -3 110 C-9.27 110 -15.54 110 -22 110 C-16.63051316 80.60391537 -11.03511829 51.26521047 -4.66552734 22.06787109 C-3.07156 14.72018453 -1.54291756 7.35852989 0 0 Z " fill="#FCFDFC" transform="translate(476,128)"/>
<path d="M0 0 C6.93 0 13.86 0 21 0 C23.2008685 9.38362787 25.24054511 18.78967219 27.1796875 28.23046875 C27.47721978 29.67419666 27.77483945 31.11790657 28.07254028 32.56159973 C28.69374368 35.57593348 29.31382877 38.59049447 29.93310547 41.60522461 C30.55598518 44.63710492 31.18030888 47.66868126 31.80615234 50.69995117 C34.9201802 65.7827371 38.0132303 80.86887824 40.9453125 95.98828125 C41.15638641 97.06917526 41.36746033 98.15006927 41.58493042 99.26371765 C41.86797531 100.73866447 41.86797531 100.73866447 42.15673828 102.2434082 C42.32086212 103.09538284 42.48498596 103.94735748 42.65408325 104.82514954 C43 107 43 107 43 110 C36.73 110 30.46 110 24 110 C22.20673713 101.93031708 21.03187566 94.18129988 20 86 C13.73 85.67 7.46 85.34 1 85 C0.566875 88.403125 0.566875 88.403125 0.125 91.875 C-0.67074998 97.97952009 -1.70306525 103.97851721 -3 110 C-9.27 110 -15.54 110 -22 110 C-20.52119084 99.91655124 -18.71109523 89.93609921 -16.75 79.9375 C-16.5969339 79.15276306 -16.4438678 78.36802612 -16.28616333 77.55950928 C-14.05133312 66.10978364 -11.69582065 54.69140681 -9.21118164 43.29296875 C-6.98578315 33.05479014 -4.9321197 22.78542299 -2.91577148 12.50439453 C-2.56107788 10.70591064 -2.56107788 10.70591064 -2.19921875 8.87109375 C-1.99127686 7.80818115 -1.78333496 6.74526855 -1.5690918 5.65014648 C-1 3 -1 3 0 0 Z " fill="#FCFDFC" transform="translate(928,307)"/>
<path d="M0 0 C5.39997346 4.56071378 9.16013232 10.94511151 10 18 C10.06994592 20.67293343 10.04533871 23.32501584 10 26 C8.10614563 26.50744423 6.20981334 27.00564574 4.3125 27.5 C2.72888672 27.91765625 2.72888672 27.91765625 1.11328125 28.34375 C-1.71142672 28.9391715 -4.12836708 29.12786492 -7 29 C-7.09796875 28.18015625 -7.1959375 27.3603125 -7.296875 26.515625 C-7.44640625 25.43796875 -7.5959375 24.3603125 -7.75 23.25 C-7.88921875 22.18265625 -8.0284375 21.1153125 -8.171875 20.015625 C-9.13249479 16.51751896 -10.10396582 15.15280417 -13 13 C-15.24253458 12.37524694 -15.24253458 12.37524694 -17.5625 12.5 C-18.70912109 12.48453125 -18.70912109 12.48453125 -19.87890625 12.46875 C-22.13329395 12.84389827 -22.13329395 12.84389827 -23.7421875 14.703125 C-26.08617117 18.983443 -25.75398707 23.27765993 -25 28 C-22.00119651 35.45416868 -13.6615218 40.76510366 -7.703125 45.828125 C2.35721018 54.40030523 11.86121783 63.66555874 13.25 77.48828125 C13.62303531 85.73003005 11.7717315 93.64215445 6.8125 100.375 C-0.93302601 107.60415761 -8.64205611 109.32038473 -18.99609375 109.21875 C-26.12251154 108.6997911 -32.70620763 105.54344412 -37.59765625 100.28125 C-43.93101252 92.43846976 -45.56023107 84.93891425 -45 75 C-43.10614563 74.49255577 -41.20981334 73.99435426 -39.3125 73.5 C-38.25675781 73.2215625 -37.20101562 72.943125 -36.11328125 72.65625 C-33.28857328 72.0608285 -30.87163292 71.87213508 -28 72 C-27.82984375 72.86882812 -27.6596875 73.73765625 -27.484375 74.6328125 C-25.69171328 83.49012511 -25.69171328 83.49012511 -21 91 C-17.90826248 92.54586876 -15.40570448 92.29359521 -12 92 C-9.35762154 90.77564845 -9.35762154 90.77564845 -8 88 C-6.91505032 80.91084019 -8.11919815 74.97238774 -12.37109375 69.109375 C-16.40699281 64.19274017 -21.12894789 60.3814161 -26.08203125 56.42578125 C-43.05104722 42.31900894 -43.05104722 42.31900894 -45 32 C-45.71382896 22.18995059 -46.22019236 13.21659362 -40 5 C-29.73379688 -5.98244985 -12.84144082 -7.19036342 0 0 Z " fill="#FBFDFB" transform="translate(832,310)"/>
<path d="M0 0 C6.70873153 7.04627777 8.17793332 14.8466473 8.92578125 24.26953125 C6.86496764 24.77643709 4.80204599 25.27477744 2.73828125 25.76953125 C1.01544922 26.1871875 1.01544922 26.1871875 -0.7421875 26.61328125 C-3.64240704 27.1844851 -6.1351826 27.40236904 -9.07421875 27.26953125 C-9.16058594 26.46128906 -9.24695313 25.65304688 -9.3359375 24.8203125 C-10.21312714 18.02133125 -10.21312714 18.02133125 -13.32421875 12.01953125 C-16.66093532 9.89616616 -18.19170968 9.5415608 -22.07421875 10.26953125 C-25.12281988 11.47455941 -25.12281988 11.47455941 -27.07421875 14.26953125 C-28.1427419 20.15648898 -27.4485404 25.26622674 -24.07421875 30.26953125 C-20.39777477 34.08238039 -16.53000764 37.68133049 -12.63671875 41.26953125 C-12.08951172 41.77742188 -11.54230469 42.2853125 -10.97851562 42.80859375 C-8.34214766 45.24216418 -5.68650332 47.60238136 -2.890625 49.8515625 C4.58225195 56.2672502 10.03042522 65.57125451 11.33984375 75.3671875 C11.73684621 84.13258383 9.95835199 92.31690797 4.31640625 99.24609375 C-1.98295824 105.11201573 -9.53508607 106.84166269 -17.94921875 106.76953125 C-18.7371582 106.76308594 -19.52509766 106.75664062 -20.33691406 106.75 C-27.84336371 106.51494018 -33.27975514 104.78230979 -38.86328125 99.61328125 C-44.24566082 93.35593357 -47.29077005 84.1854119 -47.32421875 75.95703125 C-47.24171875 75.07015625 -47.15921875 74.18328125 -47.07421875 73.26953125 C-43.34927391 71.63469435 -39.83508698 70.73898381 -35.82421875 70.08203125 C-34.7671875 69.90285156 -33.71015625 69.72367187 -32.62109375 69.5390625 C-31.780625 69.45011719 -30.94015625 69.36117187 -30.07421875 69.26953125 C-28.48936005 70.85438995 -28.87898961 72.63739084 -28.76171875 74.83203125 C-28.3033221 79.90349892 -27.04406915 84.09125897 -24.07421875 88.26953125 C-20.35363515 90.74992032 -18.47625304 90.73290328 -14.07421875 90.26953125 C-11.31869315 88.17336356 -10.21611481 86.95454672 -9.5078125 83.53515625 C-9.51985902 74.23523949 -11.91418408 69.46539314 -18.19921875 62.83203125 C-21.16556016 59.98847957 -24.31611126 57.41326883 -27.51171875 54.83203125 C-36.37956274 47.61627874 -45.46730246 40.21812857 -47.40380859 28.22900391 C-48.29884829 19.17415153 -47.77717443 10.73875667 -42.07421875 3.26953125 C-31.9393089 -7.89788953 -11.71075098 -9.76998622 0 0 Z " fill="#FCFDFB" transform="translate(438.07421875,132.73046875)"/>
<path d="M0 0 C15.18 0 30.36 0 46 0 C47 1 47 1 47.09765625 4.16015625 C47.06510417 7.7734375 47.03255208 11.38671875 47 15 C38.42 15 29.84 15 21 15 C21 25.23 21 35.46 21 46 C27.6 46 34.2 46 41 46 C41 50.95 41 55.9 41 61 C34.4 61 27.8 61 21 61 C21 72.55 21 84.1 21 96 C29.58 96 38.16 96 47 96 C47 100.62 47 105.24 47 110 C31.49 110 15.98 110 0 110 C0 73.7 0 37.4 0 0 Z " fill="#F8FBF8" transform="translate(732,307)"/>
<path d="M0 0 C15.18 0 30.36 0 46 0 C47 1 47 1 47.09765625 4.16015625 C47.06510417 7.7734375 47.03255208 11.38671875 47 15 C38.42 15 29.84 15 21 15 C21 25.23 21 35.46 21 46 C27.6 46 34.2 46 41 46 C41 50.95 41 55.9 41 61 C34.4 61 27.8 61 21 61 C21 72.55 21 84.1 21 96 C29.58 96 38.16 96 47 96 C47 100.62 47 105.24 47 110 C31.49 110 15.98 110 0 110 C0 73.7 0 37.4 0 0 Z " fill="#F8FBF8" transform="translate(602,307)"/>
<path d="M0 0 C5.94 0 11.88 0 18 0 C20.09204144 4.88143002 21.90945445 9.56665313 23.4453125 14.61328125 C23.66065643 15.30890671 23.87600037 16.00453217 24.09786987 16.72123718 C24.77715973 18.91723942 25.45140487 21.11474498 26.125 23.3125 C26.80646771 25.52787122 27.48903033 27.74289209 28.17355347 29.95732117 C28.59731268 31.32896495 29.01919681 32.70118976 29.43899536 34.0740509 C30.5273776 37.61139008 30.5273776 37.61139008 32 41 C32.1858667 40.35675781 32.3717334 39.71351563 32.56323242 39.05078125 C38.83287038 17.38043938 38.83287038 17.38043938 41.875 7.5625 C42.26429688 6.30566406 42.65359375 5.04882812 43.0546875 3.75390625 C44 1 44 1 45 0 C46.34267413 -0.08631874 47.68974322 -0.10706473 49.03515625 -0.09765625 C49.84404297 -0.09443359 50.65292969 -0.09121094 51.48632812 -0.08789062 C52.33646484 -0.07951172 53.18660156 -0.07113281 54.0625 -0.0625 C54.91650391 -0.05798828 55.77050781 -0.05347656 56.65039062 -0.04882812 C58.76695663 -0.03700373 60.88348685 -0.01906769 63 0 C61.57234987 7.32488092 59.27214765 14.06584476 56.68359375 21.0546875 C45.89198351 51.06500133 39.03004529 77.69274272 41 110 C34.73 110 28.46 110 22 110 C22.25716797 106.45765625 22.25716797 106.45765625 22.51953125 102.84375 C24.07502171 70.23988968 14.23393015 42.15940934 3.17593384 11.99902344 C2.7587912 10.85530273 2.34164856 9.71158203 1.91186523 8.53320312 C1.5418187 7.53260864 1.17177216 6.53201416 0.79051208 5.50109863 C0 3 0 3 0 0 Z " fill="#FCFDFC" transform="translate(387,307)"/>
<path d="M0 0 C18.48 0 36.96 0 56 0 C56 4.95 56 9.9 56 15 C50.06 15 44.12 15 38 15 C38 46.35 38 77.7 38 110 C31.4 110 24.8 110 18 110 C18 78.98 18 47.96 18 16 C12.06 16 6.12 16 0 16 C0 10.72 0 5.44 0 0 Z " fill="#FBFCFA" transform="translate(848,307)"/>
<path d="M0 0 C6.93 0 13.86 0 21 0 C21 31.68 21 63.36 21 96 C29.58 96 38.16 96 47 96 C47 100.62 47 105.24 47 110 C31.49 110 15.98 110 0 110 C0 73.7 0 37.4 0 0 Z " fill="#F8FBF8" transform="translate(529,128)"/>
<path d="M0 0 C1.27423828 -0.00193359 1.27423828 -0.00193359 2.57421875 -0.00390625 C3.91419922 0.00189453 3.91419922 0.00189453 5.28125 0.0078125 C6.17457031 0.00394531 7.06789063 0.00007813 7.98828125 -0.00390625 C8.83777344 -0.00261719 9.68726563 -0.00132812 10.5625 0 C11.34689453 0.00112793 12.13128906 0.00225586 12.93945312 0.00341797 C14.78125 0.1328125 14.78125 0.1328125 15.78125 1.1328125 C15.87675698 2.54960161 15.90313483 3.97112491 15.90150452 5.39112854 C15.90287918 6.309646 15.90425385 7.22816345 15.90567017 8.17451477 C15.90207489 9.19014999 15.89847961 10.20578522 15.89477539 11.25219727 C15.89492142 12.31548248 15.89506744 13.3787677 15.8952179 14.47427368 C15.89451825 18.00760908 15.88672343 21.5408925 15.87890625 25.07421875 C15.87704225 27.51659618 15.87561827 29.95897399 15.87461853 32.40135193 C15.87079189 38.84415714 15.86096037 45.28693998 15.84991455 51.72973633 C15.83970356 58.29833676 15.83512158 64.8669408 15.83007812 71.43554688 C15.81933823 84.33464685 15.80174025 97.23372432 15.78125 110.1328125 C8.85125 110.1328125 1.92125 110.1328125 -5.21875 110.1328125 C-5.24129812 95.93824867 -5.2596634 81.74369664 -5.27056217 67.549119 C-5.27579172 60.95876465 -5.28289067 54.36842313 -5.29418945 47.77807617 C-5.30501578 41.42389232 -5.31102629 35.06972085 -5.31362724 28.71552849 C-5.31548195 26.28531639 -5.31910343 23.85510501 -5.32448006 21.42489815 C-5.33168711 18.03398269 -5.33274108 14.64311909 -5.33227539 11.25219727 C-5.33587067 10.23656204 -5.33946594 9.22092682 -5.34317017 8.17451477 C-5.3417955 7.25599731 -5.34042084 6.33747986 -5.33900452 5.39112854 C-5.33992631 4.58824685 -5.3408481 3.78536516 -5.34179783 2.95815372 C-5.10191474 -0.60036892 -3.06922532 0.00441343 0 0 Z " fill="#F5FAF4" transform="translate(571.21875,306.8671875)"/>
<path d="M0 0 C13 0 13 0 16.75 2.3125 C20.03054296 6.23092631 20.13219164 9.04250208 20.17700195 13.99682617 C20.18983719 15.23208542 20.20267242 16.46734467 20.21589661 17.74003601 C20.22406638 19.09100949 20.23150966 20.44198754 20.23828125 21.79296875 C20.24235678 22.47528376 20.2464323 23.15759876 20.25063133 23.86058998 C20.27147861 27.4748466 20.28578388 31.08906544 20.29516602 34.70336914 C20.30620427 38.42113299 20.34057704 42.13829398 20.38033772 45.85584545 C20.40659513 48.72735134 20.41486604 51.59871584 20.41844749 54.47033119 C20.42329306 55.83976609 20.43484876 57.20919554 20.45348549 58.57851219 C20.55288001 66.36804118 20.60570677 72.50931317 16 79 C11 81 11 81 0 81 C0 54.27 0 27.54 0 0 Z " fill="#4FA03B" transform="translate(681,143)"/>
<path d="M0 0 C14 0 14 0 18 3 C22.03807304 7.90496211 22.60333206 11.41235845 22.4375 17.5 C22.44458984 18.23347656 22.45167969 18.96695312 22.45898438 19.72265625 C22.38891311 25.74878464 20.99229956 30.00770044 16.625 34.375 C13 36 13 36 0 36 C0 24.12 0 12.24 0 0 Z " fill="#4C9F38" transform="translate(512,367)"/>
<path d="M0 0 C12.9 0 12.9 0 17 3 C20.68489403 7.57574754 21.52654838 10.65842657 21.4375 16.5 C21.43621094 17.7684375 21.43492187 19.036875 21.43359375 20.34375 C20.97141066 24.24107767 20.07648207 26.68740036 18 30 C11.68857469 33.94464082 8.13712741 33 0 33 C0 22.11 0 11.22 0 0 Z " fill="#51A13D" transform="translate(1001,321)"/>
<path d="M0 0 C14.88888889 0 14.88888889 0 19 4 C22.25314028 9.24117045 21.62781342 15.50707445 20.5703125 21.390625 C19.40506185 25.27479385 18.44830499 26.70113001 15 29 C11 30 11 30 0 30 C0 20.1 0 10.2 0 0 Z " fill="#4D9F3A" transform="translate(512,322)"/>
<path d="M0 0 C2.77384586 2.77384586 2.66924924 5.01567074 3.25390625 8.87890625 C3.35968491 9.56500473 3.46546356 10.25110321 3.57444763 10.95799255 C3.91150757 13.15840127 4.2369089 15.36036832 4.5625 17.5625 C4.78509342 19.01898949 5.00839302 20.47537124 5.23242188 21.93164062 C6.30150614 28.94001549 7.29363178 35.94425451 8 43 C3.38 43 -1.24 43 -6 43 C-5.37776747 34.43782108 -4.34987403 26.03833949 -3 17.5625 C-2.82210937 16.41845703 -2.64421875 15.27441406 -2.4609375 14.09570312 C-1.72181186 9.37688232 -0.96486568 4.67863795 0 0 Z " fill="#56A443" transform="translate(938,336)"/>
<path d="M0 0 C0.66 0.33 1.32 0.66 2 1 C2.60812799 3.69458343 3.09144004 6.32494086 3.5078125 9.05078125 C3.63815887 9.86113327 3.76850525 10.67148529 3.90280151 11.50639343 C4.1775059 13.22487109 4.44790001 14.94404237 4.71435547 16.66381836 C5.1218864 19.29241708 5.54214646 21.91872384 5.96484375 24.54492188 C6.22991976 26.2134222 6.49426645 27.88203858 6.7578125 29.55078125 C6.88278107 30.33632889 7.00774963 31.12187653 7.13650513 31.93122864 C7.66308784 35.34655162 8 38.53460147 8 42 C3.38 42 -1.24 42 -6 42 C-5.34114261 33.80546121 -4.28334674 25.74356305 -3 17.625 C-2.82210938 16.47644531 -2.64421875 15.32789063 -2.4609375 14.14453125 C-1.72224579 9.40918662 -0.96911592 4.69442327 0 0 Z " fill="#57A544" transform="translate(486,158)"/>
</svg>
