<?xml version="1.0" encoding="UTF-8"?>
<svg version="1.1" xmlns="http://www.w3.org/2000/svg" width="1500" height="1500">
<path d="M0 0 C495 0 990 0 1500 0 C1500 495 1500 990 1500 1500 C1005 1500 510 1500 0 1500 C0 1005 0 510 0 0 Z " fill="#C5192D" transform="translate(0,0)"/>
<path d="M0 0 C0 166.98 0 333.96 0 506 C-11.99986223 509.81813798 -23.7367899 513.53412397 -35.83984375 516.8203125 C-39.77913283 517.91259058 -43.63123435 519.17895807 -47.5 520.5 C-53.50488321 522.54827584 -59.54297795 524.30135715 -65.66493225 525.96240234 C-71.37113985 527.52165832 -77.03049087 529.20445577 -82.68359375 530.9453125 C-93.21356316 534.16826055 -103.76243118 537.32557951 -114.31640625 540.46875 C-115.96980541 540.96145102 -117.62319686 541.45417788 -119.27658081 541.94692993 C-126.08589099 543.97600444 -132.89541384 546.00436011 -139.70581055 548.02978516 C-164.02195609 555.22788597 -164.02195609 555.22788597 -188.21278381 562.83312988 C-193.93864994 564.69214231 -199.7033982 566.37570316 -205.5 568 C-212.63363025 570.0051785 -219.70115254 572.151815 -226.75 574.4375 C-236.00212555 577.43491459 -245.32371294 580.11774114 -254.70214844 582.69116211 C-256.19536621 583.10120483 -256.19536621 583.10120483 -257.71875 583.51953125 C-259.1109375 583.90165771 -259.1109375 583.90165771 -260.53125 584.29150391 C-262.52940884 584.86494704 -264.50403497 585.51997605 -266.46875 586.19921875 C-269 587 -269 587 -273 587 C-273 444.77 -273 302.54 -273 156 C-264.75 151.38 -256.5 146.76 -248 142 C-241.75850592 138.34802223 -241.75850592 138.34802223 -235.53125 134.671875 C-229.90132145 131.33998092 -224.2308083 128.07852327 -218.5625 124.8125 C-217.45527588 124.17449463 -216.34805176 123.53648926 -215.20727539 122.87915039 C-212.93662932 121.57110523 -210.66587642 120.26324552 -208.39501953 118.95556641 C-202.9283002 115.80667946 -197.46425113 112.65316736 -192 109.5 C-189.83334689 108.2499765 -187.66668021 106.99997653 -185.5 105.75 C-184.4275 105.13125 -183.355 104.5125 -182.25 103.875 C-172.5 98.25 -172.5 98.25 -169.24951172 96.37475586 C-167.08442929 95.12564482 -164.91939018 93.87645871 -162.75439453 92.62719727 C-157.31384294 89.48797691 -151.87252784 86.35009437 -146.4296875 83.21484375 C-135.97793801 77.19252671 -125.53700452 71.15330663 -115.125 65.0625 C-105.85500223 59.64078822 -96.54168248 54.29795085 -87.21154785 48.98077393 C-78.09001709 43.78117074 -69.00363569 38.52418533 -59.94189453 33.22094727 C-51.52418969 28.29676458 -43.07659143 23.42555695 -34.62036133 18.56787109 C-29.24627933 15.4743066 -23.89314292 12.35167071 -18.57421875 9.1640625 C-17.05368896 8.25442749 -17.05368896 8.25442749 -15.50244141 7.32641602 C-13.58584283 6.1764887 -11.67257529 5.02098555 -9.76318359 3.85913086 C-8.91449707 3.35003174 -8.06581055 2.84093262 -7.19140625 2.31640625 C-6.08067749 1.64266968 -6.08067749 1.64266968 -4.94750977 0.95532227 C-3 0 -3 0 0 0 Z " fill="#FEFEFE" transform="translate(967,649)"/>
<path d="M0 0 C3.66547318 1.46618927 6.65214735 2.85771893 10 4.8359375 C10.95841797 5.39925781 11.91683594 5.96257813 12.90429688 6.54296875 C13.92587891 7.14753906 14.94746094 7.75210938 16 8.375 C18.17661866 9.65443668 20.35371034 10.93306894 22.53125 12.2109375 C23.62179687 12.8512793 24.71234375 13.49162109 25.8359375 14.15136719 C30.37154209 16.80133617 34.93337675 19.4039663 39.5 22 C48.0552122 26.86936335 56.56160568 31.81892133 65.05859375 36.7890625 C72.36960586 41.06087653 79.71171766 45.27481709 87.07080078 49.46313477 C93.69950687 53.2417843 100.29083553 57.08185568 106.875 60.9375 C115.81698355 66.17246497 124.81200024 71.3042777 133.84277344 76.38427734 C140.15987675 79.94350015 146.42760951 83.57560389 152.66552734 87.27148438 C158.10023682 90.48612858 163.57493163 93.6265663 169.0625 96.75 C176.73665809 101.11896539 184.37779729 105.5410267 192 110 C199.47740959 114.37381582 206.97178045 118.71422106 214.5 123 C222.00217805 127.27341061 229.47933224 131.58771035 236.9375 135.9375 C237.81664062 136.44990234 238.69578125 136.96230469 239.6015625 137.49023438 C241.47046485 138.58198261 243.31540847 139.7155398 245.13730431 140.8840456 C248.11843691 142.66724478 251.0736354 143.71522757 254.37510109 144.77955151 C261.07631772 147.28180366 266.66017094 150.16293919 271 156 C275.03890873 168.0036472 273.83578067 181.54239342 273.55344367 194.03142464 C273.45807065 199.32297799 273.49061186 204.61397168 273.5072937 209.90614319 C273.51880801 219.06524802 273.45003119 228.22089467 273.32606125 237.37912941 C273.1469491 250.6196233 273.08993966 263.85845197 273.06232543 277.10002597 C273.01422297 298.58463959 272.86794953 320.06741137 272.65966797 341.55102539 C272.45760276 362.41518971 272.30194175 383.27885305 272.20849609 404.14379883 C272.20271618 405.43076551 272.19693626 406.7177322 272.19098119 408.04369787 C272.16226952 414.50029526 272.13446815 420.95689618 272.10711932 427.41349947 C271.87919999 480.94360566 271.4918451 534.47171283 271 588 C269.41216314 587.68988016 267.82473211 587.37768204 266.23747253 587.06462097 C264.91140629 586.80417637 264.91140629 586.80417637 263.55855083 586.53847027 C260.18150886 585.8277411 256.9111555 584.87713124 253.61328125 583.86328125 C252.63060776 583.56343071 252.63060776 583.56343071 251.62808228 583.25752258 C249.52149609 582.6136267 247.41702616 581.96309365 245.3125 581.3125 C243.8231445 580.85612985 242.33364056 580.40024387 240.84399414 579.94482422 C237.20081439 578.83013383 233.55912137 577.7106779 229.91784668 576.58978271 C225.59357334 575.25996751 221.26556326 573.94241542 216.9375 572.625 C216.07012207 572.36041992 215.20274414 572.09583984 214.30908203 571.82324219 C203.73137778 568.60241352 193.13543951 565.44211272 182.54284668 562.27069092 C171.05184978 558.82925053 159.5754559 555.34681192 148.11669922 551.79931641 C139.38585037 549.10283868 130.62712184 546.5051818 121.86279297 543.91992188 C114.09914515 541.62802066 106.35068123 539.29103719 98.60986328 536.92333984 C89.69232151 534.20050702 80.76022776 531.52694757 71.82794189 528.85299683 C57.71068 524.62656384 43.60395816 520.37200182 29.52734375 516.01171875 C19.69316859 512.98083891 9.84478474 509.99623883 0 507 C0 339.69 0 172.38 0 0 Z " fill="#FEFEFE" transform="translate(393,648)"/>
<path d="M0 0 C0.66 0 1.32 0 2 0 C2 176.55 2 353.1 2 535 C4.97 535.66 7.94 536.32 11 537 C20.50065811 539.22119531 29.8358925 541.80585793 39.16674805 544.6496582 C51.18653236 548.29728389 63.33167784 551.4917561 75.46875 554.72265625 C86.25505644 557.5997452 96.99964432 560.54607514 107.67773438 563.80297852 C119.52584858 567.40109136 131.50437903 570.53772932 143.46875 573.72265625 C154.25505644 576.5997452 164.99964432 579.54607514 175.67773438 582.80297852 C187.52584858 586.40109136 199.50437903 589.53772932 211.46875 592.72265625 C222.2299752 595.59326631 232.94612347 598.53440884 243.59423828 601.80078125 C250.80845 603.99229295 258.09052235 605.87392272 265.39477539 607.73925781 C272.86438321 609.66256621 280.25071784 611.8047933 287.61914062 614.08398438 C288.38677734 614.32052734 289.15441406 614.55707031 289.9453125 614.80078125 C290.61062988 615.00872314 291.27594727 615.21666504 291.96142578 615.4309082 C318.55089957 622.85367029 344.78004126 614.81768999 369.71875 605.86865234 C377.53302018 603.07807345 385.44081512 600.57696918 393.34109497 598.04309082 C397.83511911 596.5969896 402.32171341 595.12824355 406.80859375 593.66015625 C407.71669296 593.36329926 408.62479218 593.06644226 409.56040955 592.7605896 C415.32086944 590.87728508 421.0805389 588.99156797 426.84016418 587.10571289 C431.91398973 585.44459936 436.98813102 583.78445267 442.0625 582.125 C443.58041641 581.62858002 443.58041641 581.62858002 445.1289978 581.12213135 C468.22014 573.57421983 491.36025486 566.18080488 514.50408936 558.79638672 C528.91236655 554.19904241 543.30555156 549.55847193 557.6796875 544.85546875 C558.82698334 544.4801149 559.97427917 544.10476105 561.15634155 543.71803284 C566.94848254 541.822597 572.74004452 539.92541596 578.53076172 538.02563477 C588.90073881 534.62644143 599.27701055 531.26202748 609.70117188 528.03271484 C614.89974133 526.40527636 620.05397639 524.65383053 625.20703125 522.88867188 C630.78965097 521 630.78965097 521 633 521 C633 349.07 633 177.14 633 0 C636.11811236 1.87086742 638.70512441 3.44064803 641.453125 5.671875 C642.07316406 6.17203125 642.69320312 6.6721875 643.33203125 7.1875 C644.28142578 7.9609375 644.28142578 7.9609375 645.25 8.75 C646.50466074 9.76630139 647.75987574 10.7819189 649.015625 11.796875 C649.61559414 12.30717154 650.21556327 12.81746809 650.83371329 13.34322816 C652.93175963 15.06299395 652.93175963 15.06299395 655.31909013 16.12090749 C658.3388294 17.77553065 659.98085636 19.18279175 662 22 C663.80841424 28.5915717 663.18678719 35.80368561 663.10247803 42.5695343 C663.10855073 44.71906074 663.11856845 46.86857905 663.13219476 49.01807088 C663.15816881 54.92772413 663.12791869 60.83596557 663.08856773 66.74549592 C663.05590741 73.11700738 663.07510694 79.48838677 663.08792114 85.85993958 C663.10288075 96.90042541 663.08487426 107.94044794 663.0432663 118.98085976 C662.99967562 130.56090935 662.97340734 142.14077279 662.97071075 153.72090721 C662.97043583 154.80110056 662.97043583 154.80110056 662.97015535 155.90311599 C662.96946681 158.82622689 662.96890527 161.74933776 662.96851094 164.67244871 C662.96487698 191.31048313 662.91778362 217.94825707 662.84375 244.58618164 C662.7738385 269.7460329 662.73134557 294.90572614 662.72070312 320.06567383 C662.72036858 320.84109609 662.72003403 321.61651836 662.71968935 322.41543827 C662.7183428 325.54157918 662.71701688 328.66772011 662.71569207 331.79386103 C662.71503093 333.35168063 662.71436706 334.90950024 662.71370043 336.46731984 C662.71303636 338.02126522 662.71238004 339.5752106 662.71173152 341.12915599 C662.70119532 365.85166692 662.66681523 390.57414805 662.62831251 415.29662919 C662.61714705 422.53928663 662.60735491 429.78194207 662.60056591 437.02460504 C662.58615473 452.25575412 662.56453966 467.486796 662.51612291 482.71788106 C662.49624962 489.01879879 662.48109578 495.31963178 662.47874069 501.62058258 C662.4763913 507.37963455 662.46028425 513.13847186 662.4327822 518.89745715 C662.4252167 520.98945111 662.42277487 523.08147062 662.42575857 525.17347614 C662.42901348 528.00004845 662.41410332 530.82593454 662.39428329 533.65242481 C662.40224591 534.89293182 662.40224591 534.89293182 662.4103694 536.15849957 C662.3829515 538.42540246 662.3829515 538.42540246 662 542 C658.86352998 544.09098001 656.76238072 544.67669081 653.125 545.5625 C645.18603373 547.57653007 637.37846055 549.9951753 629.5625 552.4375 C628.92529022 552.63646881 628.28808044 552.83543762 627.63156128 553.04043579 C623.41982495 554.35642393 619.20988036 555.67809007 615 557 C612.76869127 557.69733595 610.53703954 558.39355453 608.30517578 559.08911133 C606.47178191 559.66128071 604.63891804 560.23514781 602.80615234 560.80932617 C600.34489317 561.57927877 597.88286552 562.34678097 595.41992188 563.11132812 C586.13756031 565.99671192 576.88716279 568.97140669 567.64682007 571.98834229 C556.01838364 575.78254705 544.3813911 579.53657699 532.6875 583.125 C514.35151945 588.75703662 496.11126105 594.69204857 477.85475159 600.57528687 C464.9122555 604.74576224 451.96156931 608.88919722 439 613 C438.14117218 613.27249573 437.28234436 613.54499146 436.39749146 613.82574463 C431.29199841 615.44560383 426.18613873 617.06430384 421.08007812 618.68237305 C405.22723496 623.70066006 405.22723496 623.70066006 389.38232422 628.74389648 C387.78712726 629.25018107 386.18974952 629.74964252 384.59033203 630.24243164 C379.44895319 631.83994907 374.37665713 633.57672196 369.31680298 635.41323853 C335.12800769 647.75212459 306.99012559 650.32323368 272 639 C270.15408472 638.44083472 268.30648214 637.88720145 266.45703125 637.33984375 C263.12742439 636.35391482 259.80412731 635.35060326 256.484375 634.33203125 C251.73544856 632.89581501 246.94509194 631.69623616 242.1237793 630.53173828 C235.85856629 629.00325907 229.67625134 627.21658189 223.48291016 625.421875 C216.32462819 623.35646725 209.13721895 621.41539593 201.9375 619.5 C194.27053435 617.45759578 186.64576595 615.33403269 179.0625 613 C170.10910388 610.2465247 161.06456166 607.91754529 151.98852539 605.60546875 C144.4728727 603.6778612 137.04835675 601.56040118 129.63671875 599.26953125 C121.49690165 596.7841913 113.25859885 594.71155226 105.01245117 592.61206055 C97.23049459 590.61670123 89.53885283 588.41980779 81.86108398 586.05859375 C76.31894809 584.36435683 70.75596403 582.89208714 65.1237793 581.53173828 C59.74936542 580.22058096 54.43834938 578.72624359 49.125 577.1875 C41.10687793 574.86593867 33.06490379 572.65336604 25 570.5 C16.12671557 568.12836572 7.2783721 565.68782877 -1.54589844 563.13989258 C-5.77916185 561.91793242 -10.01580784 560.71404662 -14.265625 559.55078125 C-15.10480469 559.32084473 -15.94398438 559.0909082 -16.80859375 558.85400391 C-18.39896275 558.41983317 -19.99007684 557.98837966 -21.58203125 557.56005859 C-26.89047652 556.10952348 -26.89047652 556.10952348 -28 555 C-28.11092205 552.19202685 -28.15575256 549.40815596 -28.15936089 546.59923744 C-28.16693378 545.25512782 -28.16693378 545.25512782 -28.17465967 543.88386446 C-28.19050376 540.84157477 -28.19909982 537.79930665 -28.20773315 534.75698853 C-28.2174664 532.5695695 -28.2276051 530.38215225 -28.23811734 528.19473684 C-28.26573489 522.15260831 -28.28678795 516.11047179 -28.30663323 510.06831336 C-28.32439513 504.89335603 -28.34582287 499.7184163 -28.36717294 494.54347272 C-28.5652143 446.28852476 -28.66943811 398.03314368 -28.75161848 349.77787476 C-28.76388903 342.59654475 -28.77663179 335.41521559 -28.78955078 328.23388672 C-28.79167625 327.0435841 -28.79167625 327.0435841 -28.79384466 325.82923497 C-28.84008536 300.10963314 -28.93111037 274.39043673 -29.04639695 248.671059 C-29.16467217 222.23684326 -29.24052235 195.80284803 -29.26198688 169.36836747 C-29.26503253 165.63409082 -29.26854831 161.89981475 -29.27234268 158.16553879 C-29.27307268 157.43059089 -29.27380268 156.69564298 -29.2745548 155.93842393 C-29.28751852 144.11195903 -29.34490912 132.28610815 -29.41877765 120.45988432 C-29.49206066 108.56866913 -29.51772639 96.67809888 -29.4950311 84.78667302 C-29.48470769 78.344235 -29.49556468 71.90365312 -29.56312943 65.46152115 C-29.62452743 59.56206146 -29.62581262 53.66573915 -29.57947291 47.76617019 C-29.57328757 45.63339248 -29.58907137 43.50041297 -29.62916015 41.36800309 C-29.92536591 24.61804027 -29.92536591 24.61804027 -25.14303803 19.34593844 C-22.01167424 16.45603716 -18.62161423 14.23164361 -15 12 C-13.63793115 10.95471502 -12.28685192 9.89460905 -10.95703125 8.80859375 C-9.3587745 7.6034486 -7.76051296 6.39830977 -6.16210938 5.19335938 C-3.98506362 3.5437561 -1.93461928 1.93461928 0 0 Z " fill="#FEFBFB" transform="translate(363,647)"/>
<path d="M0 0 C21.12 0 42.24 0 64 0 C64.15846565 57.13952116 64.28370057 114.27899006 64.35745731 171.4186876 C64.36618771 178.17479604 64.37526372 184.93090399 64.38452148 191.68701172 C64.3854368 192.35928088 64.38635211 193.03155004 64.38729516 193.724191 C64.41705803 215.46534325 64.46958699 237.20636709 64.53408055 258.94744174 C64.60218704 281.94854498 64.64401611 304.94959567 64.65861946 327.9508034 C64.66819226 341.71180016 64.69835292 355.47242801 64.75541527 369.23331113 C64.7926086 378.68815107 64.80355762 388.14280216 64.79450964 397.59770982 C64.79005567 403.04104956 64.79655601 408.48374775 64.83443832 413.92697144 C65.10641513 455.05200406 65.10641513 455.05200406 57.92542756 475.35175633 C56.6021546 479.13849168 55.4620682 482.9757727 54.30753225 486.8166517 C53.46956169 489.60114345 52.61138146 492.37892191 51.75 495.15625 C49.52131394 502.47907564 47.58918517 509.87841033 45.63378906 517.27783203 C43.40103541 525.66509954 40.92764571 533.9604663 38.35913086 542.25024414 C36.34172098 548.78721012 34.50752007 555.32383971 33 562 C32.34 562 31.68 562 31 562 C30.82762314 561.38708603 30.65524628 560.77417206 30.47764587 560.14268494 C28.64663309 553.63409151 26.81214426 547.12648441 24.97583008 540.61938477 C24.29529048 538.20621344 23.61557313 535.79281006 22.93676758 533.37915039 C19.21052981 520.13183727 15.40617233 506.91898451 11.3616333 493.76512146 C9.14800699 486.54731064 7.10148393 479.30372562 5.1875 472 C4.61892618 469.85405094 4.04992859 467.70821411 3.48046875 465.5625 C3.24223389 464.65628906 3.00399902 463.75007813 2.75854492 462.81640625 C2.21604703 460.80216237 1.61189654 458.80412288 0.96797192 456.81997484 C-0.04589245 452.81889144 -0.27644734 449.15619213 -0.24609566 445.06399632 C-0.24840335 444.29108613 -0.25071103 443.51817594 -0.25308865 442.72184423 C-0.25837798 440.13467091 -0.24941346 437.54774705 -0.24050903 434.96058655 C-0.24138132 433.08601 -0.24313272 431.2114337 -0.24568737 429.33685869 C-0.25016038 424.18772997 -0.24215779 419.03868442 -0.23213124 413.8895663 C-0.22349842 408.33612691 -0.22641679 402.78269226 -0.22793579 397.22924805 C-0.22898475 387.60819957 -0.22270701 377.98717821 -0.21146011 368.36613655 C-0.19520955 354.45570927 -0.18999756 340.54529512 -0.18748413 326.63485938 C-0.18310633 304.06637926 -0.16981211 281.49791479 -0.15087891 258.92944336 C-0.13250775 237.005616 -0.11834164 215.0817925 -0.10986328 193.15795898 C-0.10960023 192.48207234 -0.10933718 191.80618569 -0.10906615 191.10981764 C-0.10642909 184.32223484 -0.10387747 177.53465201 -0.10138843 170.74706916 C-0.08050921 113.83136877 -0.04466251 56.91568631 0 0 Z " fill="#FEFEFE" transform="translate(1116,695)"/>
<path d="M0 0 C20.46 0 40.92 0 62 0 C62 58.74 62 117.48 62 178 C71.24 178 80.48 178 90 178 C90 191.53 90 205.06 90 219 C80.76 219 71.52 219 62 219 C62 241.77 62 264.54 62 288 C45.5 288 29 288 12 288 C12 265.23 12 242.46 12 219 C-16.38 219 -44.76 219 -74 219 C-75.57123241 171.2916704 -75.57123241 171.2916704 -64.66796875 151.21386719 C-61.84596355 145.77638527 -59.57276118 140.10614695 -57.23553467 134.44863892 C-55.7759445 130.93145002 -54.28057722 127.42952099 -52.7890625 123.92578125 C-52.16683177 122.46051733 -51.54476375 120.99518431 -50.92285156 119.52978516 C-50.60819946 118.78859436 -50.29354736 118.04740356 -49.96936035 117.28375244 C-48.98161434 114.95668453 -47.99418475 112.62948257 -47.00683594 110.30224609 C-38.53502713 90.33461678 -30.02993356 70.38172842 -21.47665405 50.44885254 C-15.62977346 36.82212644 -9.81768919 23.18157849 -4.06469727 9.51489258 C-2.72010891 6.33887683 -1.35859299 3.17005031 0 0 Z " fill="#FEFDFD" transform="translate(187,128)"/>
<path d="M0 0 C7.3811329 4.68071842 10.52376395 11.14628361 12.56596375 19.47515869 C13.46893875 24.72787336 13.28324648 30.05639976 13.265625 35.37109375 C13.26849518 37.28644676 13.26849518 37.28644676 13.27142334 39.24049377 C13.27278038 41.93268584 13.27013446 44.6245111 13.26074219 47.31665039 C13.24936012 50.74366892 13.25591016 54.17037364 13.26788712 57.59738064 C13.27691066 60.89696241 13.27056577 64.19650785 13.265625 67.49609375 C13.26967346 68.71509872 13.27372192 69.9341037 13.27789307 71.19004822 C13.21804482 82.15207742 11.86425727 92.85719827 4.65625 101.63671875 C-1.93403783 107.73273499 -10.88065713 108.5614481 -19.4375 108.5 C-20.36183838 108.49427979 -21.28617676 108.48855957 -22.23852539 108.48266602 C-30.22947662 108.27284261 -35.81226427 106.79964815 -41.8125 101.35546875 C-48.44975517 94.28743019 -50.09185497 86.0502117 -50.17700195 76.6184082 C-50.19625481 74.75035271 -50.19625481 74.75035271 -50.21589661 72.84455872 C-50.22406719 71.49663701 -50.23151031 70.14871072 -50.23828125 68.80078125 C-50.24235678 68.11392935 -50.2464323 67.42707745 -50.25063133 66.71941185 C-50.27142181 63.0822315 -50.2857525 59.44508806 -50.29516602 55.80786133 C-50.30620392 52.08039111 -50.34059295 48.35352215 -50.38033772 44.62626362 C-50.40667093 41.73405462 -50.41487258 38.84198526 -50.41844749 35.94966698 C-50.42327204 34.57712948 -50.43476571 33.20459643 -50.45348549 31.83217812 C-50.57910714 22.01059861 -49.7968977 12.66046915 -43.6875 4.5625 C-32.37566434 -6.22320377 -13.5307643 -7.39712411 0 0 Z " fill="#FEFBFC" transform="translate(911,131)"/>
<path d="M0 0 C44.13513514 0 44.13513514 0 53 8 C60.86561484 17.44635584 61.31358946 27.24630485 61.3359375 39.109375 C61.3425943 40.35317932 61.3492511 41.59698364 61.35610962 42.878479 C61.36619737 45.50067678 61.37092785 48.12290003 61.37060547 50.74511719 C61.37036285 54.72361447 61.41131596 58.70137176 61.44921875 62.6796875 C61.45508942 65.23957958 61.45905714 67.79947688 61.4609375 70.359375 C61.47530853 71.532724 61.48967957 72.706073 61.50448608 73.91497803 C61.44493471 84.86248871 59.67297181 95.46274453 51.71875 103.484375 C38.26224003 115.35057015 14.94577744 110 0 110 C0 73.7 0 37.4 0 0 Z " fill="#FEFBFB" transform="translate(934,307)"/>
<path d="M0 0 C45.21888186 0 45.21888186 0 54.484375 9.2265625 C61.63065821 17.58845058 61.30976102 29.74985683 61.30078125 40.2109375 C61.30506638 41.3409317 61.3093515 42.4709259 61.31376648 43.63516235 C61.31947356 46.01002334 61.32003701 48.38490179 61.31567383 50.75976562 C61.31251459 54.35838138 61.33601762 57.95617303 61.36132812 61.5546875 C61.44600251 91.87482192 61.44600251 91.87482192 53 102 C38.87981853 115.3960696 17.86371109 110 0 110 C0 73.7 0 37.4 0 0 Z " fill="#FDF9FA" transform="translate(452,128)"/>
<path d="M0 0 C44.05263158 0 44.05263158 0 51.9375 6.375 C52.9584375 7.674375 52.9584375 7.674375 54 9 C54.721875 9.9075 55.44375 10.815 56.1875 11.75 C60.71659017 19.8711272 60.30734481 28.82247859 60.30078125 37.87109375 C60.30506638 39.18860123 60.3093515 40.5061087 60.31376648 41.86354065 C60.32118503 44.63961843 60.32096915 47.41556894 60.31567383 50.19165039 C60.30988091 53.72289027 60.32682668 57.25360533 60.3500185 60.78475857 C60.36841817 64.18855744 60.36456823 67.59224563 60.36328125 70.99609375 C60.372491 72.25054794 60.38170074 73.50500214 60.39118958 74.79747009 C60.33991566 84.60529452 59.20595403 93.40869977 52.87890625 101.2421875 C39.05551066 114.17467817 16.14292714 109 0 109 C0 73.03 0 37.06 0 0 Z " fill="#FEFEFE" transform="translate(792,308)"/>
<path d="M0 0 C44.83671875 0 44.83671875 0 53.37890625 8.25 C60.75146456 16.20880994 60.30109324 26.75472735 60.265625 36.99609375 C60.26849518 38.8391787 60.26849518 38.8391787 60.27142334 40.71949768 C60.27277891 43.30722255 60.26912657 45.89495437 60.26074219 48.48266602 C60.25004334 52.42154377 60.26065457 56.35996451 60.2734375 60.29882812 C60.27211561 62.82291766 60.26955262 65.34700692 60.265625 67.87109375 C60.26967346 69.03805283 60.27372192 70.2050119 60.27789307 71.40733337 C60.21847118 81.88271976 59.25451846 92.23763114 53 101 C38.09574522 114.30933453 20.0477249 109 0 109 C0 73.03 0 37.06 0 0 Z " fill="#FEFBFC" transform="translate(394,308)"/>
<path d="M0 0 C4.95 0 9.9 0 15 0 C15.50861572 1.18851563 16.01723145 2.37703125 16.54125977 3.6015625 C18.46216536 8.08979404 20.38392043 12.57766147 22.3059082 17.06542969 C23.13132858 18.99306771 23.95653071 20.92079919 24.78149414 22.84863281 C25.98003047 25.64934629 27.17940064 28.44970154 28.37890625 31.25 C28.73650528 32.08611816 29.09410431 32.92223633 29.46253967 33.78369141 C32.93056675 41.87599723 36.4707518 49.93314696 40 58 C40.33 38.86 40.66 19.72 41 0 C46.61 0 52.22 0 58 0 C58 36.3 58 72.6 58 110 C53.38 110 48.76 110 44 110 C41.9012805 105.04731922 39.80598841 100.09320493 37.71337891 95.13793945 C37.00655477 93.46537602 36.29891908 91.79315523 35.59033203 90.12133789 C29.52994308 75.82003378 23.77066192 61.42665479 18 47 C17.67 67.79 17.34 88.58 17 110 C11.39 110 5.78 110 0 110 C0 73.7 0 37.4 0 0 Z " fill="#FEFBFB" transform="translate(939,128)"/>
<path d="M0 0 C6.6 0 13.2 0 20 0 C20.01458252 2.53300781 20.02916504 5.06601563 20.04418945 7.67578125 C20.09461421 16.06176722 20.16122322 24.44756904 20.23571491 32.83337402 C20.28036815 37.91575523 20.31963543 42.99805721 20.34643555 48.08056641 C20.37251881 52.9890466 20.41295681 57.89722108 20.46318626 62.80551147 C20.47982102 64.67447089 20.49135636 66.54348314 20.49761391 68.4125061 C20.50729199 71.03834792 20.53539497 73.66341358 20.56762695 76.2890625 C20.56547432 77.43813835 20.56547432 77.43813835 20.5632782 78.61042786 C20.65624951 83.99525927 21.72534064 88.0950417 24 93 C27.70329669 95.46886446 30.70587443 95.77160069 35 95 C38.08690047 93.05391058 39.55670928 91.45701863 40.63046265 87.92778015 C42.37269235 78.86038568 42.35157202 69.84215618 42.4140625 60.64453125 C42.43280654 58.88904442 42.45238227 57.1335663 42.4727478 55.37809753 C42.52373359 50.7932146 42.56353725 46.20830256 42.60089111 41.62329102 C42.641143 36.9304301 42.6921379 32.23768672 42.7421875 27.54492188 C42.83854872 18.36335625 42.92208396 9.1817407 43 0 C49.27 0 55.54 0 62 0 C62.04530365 10.64914557 62.08194651 21.29822643 62.10362434 31.94744682 C62.11403206 36.89306106 62.12813592 41.83860557 62.15087891 46.78417969 C62.1727151 51.5628337 62.18459125 56.34142092 62.18975449 61.120121 C62.19343097 62.9372373 62.20060992 64.75435021 62.21146011 66.57143784 C62.37286613 94.73937142 62.37286613 94.73937142 54.4296875 103.7890625 C47.32818749 110.25365668 40.53913824 111.56182115 31.1875 111.5 C30.20789307 111.49500488 29.22828613 111.49000977 28.21899414 111.48486328 C19.27112838 111.26806312 13.75142269 109.42521202 7.125 103.375 C1.70366298 94.76464121 -0.16059014 85.7683752 -0.11352539 75.72143555 C-0.11367142 74.90140549 -0.11381744 74.08137543 -0.1139679 73.23649597 C-0.1132734 70.53654296 -0.1055027 67.83665965 -0.09765625 65.13671875 C-0.09579043 63.26056455 -0.0943673 61.38440987 -0.09336853 59.508255 C-0.0895563 54.577979 -0.07973707 49.6477326 -0.06866455 44.71746826 C-0.05842259 39.68339437 -0.05386494 34.64931569 -0.04882812 29.61523438 C-0.03811363 19.7434745 -0.02052732 9.87174435 0 0 Z " fill="#FEFBFB" transform="translate(527,128)"/>
<path d="M0 0 C7.26 0 14.52 0 22 0 C22.42821045 2.11599609 22.8564209 4.23199219 23.29760742 6.41210938 C24.73385158 13.50877041 26.17085765 20.60527702 27.60821056 27.70171356 C28.47719731 31.99215171 29.3459499 36.28263696 30.21411133 40.57324219 C31.21882728 45.53856077 32.22444327 50.50369659 33.23046875 55.46875 C33.3946014 56.27919769 33.55873405 57.08964539 33.72784042 57.9246521 C35.92101732 68.75003325 38.13389668 79.57079679 40.44413757 90.37194824 C41.82226583 96.88691994 42.93605085 103.42623921 44 110 C37.73 110 31.46 110 25 110 C24.32736907 106.77197209 23.6617023 103.54276967 23 100.3125 C22.80921875 99.40048828 22.6184375 98.48847656 22.421875 97.54882812 C22.24140625 96.66259766 22.0609375 95.77636719 21.875 94.86328125 C21.62363281 93.64572144 21.62363281 93.64572144 21.3671875 92.40356445 C21 90 21 90 21 85 C14.73 85.33 8.46 85.66 2 86 C0.68 93.92 -0.64 101.84 -2 110 C-8.27 110 -14.54 110 -21 110 C-20.30701953 100.15122015 -18.24932131 90.61407137 -16.2890625 80.95703125 C-15.91611061 79.10162221 -15.54359033 77.24612636 -15.17147827 75.39054871 C-14.19379609 70.52113733 -13.21035504 65.65290686 -12.22564697 60.78491211 C-11.23293083 55.87227354 -10.24556705 50.95855999 -9.2578125 46.04492188 C-7.80322934 38.8116611 -6.34575344 31.57899222 -4.88525391 24.34692383 C-3.24680663 16.23326969 -1.62060216 8.11723769 0 0 Z " fill="#FEFCFC" transform="translate(695,128)"/>
<path d="M0 0 C6.93 0 13.86 0 21 0 C24.64319062 16.72131081 28.12280664 33.46608192 31.45654297 50.25146484 C33.15958259 58.82225947 34.89296146 67.38527021 36.6875 75.9375 C38.24931748 83.39180261 39.80116161 90.84777317 41.3125 98.3125 C41.48418701 99.14966553 41.65587402 99.98683105 41.83276367 100.84936523 C42.45624229 103.94854508 43 106.82998421 43 110 C36.73 110 30.46 110 24 110 C23.32736907 106.77197209 22.6617023 103.54276967 22 100.3125 C21.80921875 99.40048828 21.6184375 98.48847656 21.421875 97.54882812 C21.24140625 96.66259766 21.0609375 95.77636719 20.875 94.86328125 C20.62363281 93.64572144 20.62363281 93.64572144 20.3671875 92.40356445 C20 90 20 90 20 85 C13.73 85 7.46 85 1 85 C0.67 87.97 0.34 90.94 0 94 C-0.4933073 96.86527194 -1.004158 99.7110221 -1.5625 102.5625 C-2.036875 105.016875 -2.51125 107.47125 -3 110 C-9.27 110 -15.54 110 -22 110 C-20.87497276 100.99978207 -20.87497276 100.99978207 -20.12719727 97.29972839 C-19.95898468 96.46006531 -19.79077209 95.62040222 -19.61746216 94.7552948 C-19.43561371 93.86304703 -19.25376526 92.97079926 -19.06640625 92.05151367 C-18.8727951 91.08956085 -18.67918396 90.12760803 -18.47970581 89.13650513 C-17.84354378 85.97973166 -17.20313006 82.82383826 -16.5625 79.66796875 C-16.1177158 77.46702631 -15.67313881 75.26604198 -15.22875977 73.0650177 C-14.29922202 68.46427208 -13.36766132 63.86394227 -12.43457031 59.26391602 C-11.2374796 53.36191398 -10.0447107 47.45904876 -8.85334778 41.55588818 C-7.93689425 37.01667509 -7.01854595 32.47784705 -6.09957886 27.93914223 C-5.65890653 25.76188554 -5.21873966 23.58452649 -4.77908325 21.40706444 C-4.16579178 18.37149789 -3.55004462 15.33643997 -2.93359375 12.30151367 C-2.7517453 11.39914474 -2.56989685 10.49677582 -2.38253784 9.56706238 C-2.21432526 8.74149841 -2.04611267 7.91593445 -1.87280273 7.06535339 C-1.72753647 6.34844928 -1.5822702 5.63154516 -1.43260193 4.89291668 C-1 3 -1 3 0 0 Z " fill="#FEFCFC" transform="translate(646,307)"/>
<path d="M0 0 C6.93 0 13.86 0 21 0 C25.60978785 21.19728586 29.98464636 42.43873068 34.28857422 63.69995117 C35.20675524 68.23506441 36.12913549 72.76931338 37.05245018 77.30338383 C37.76988711 80.82960483 38.48468717 84.35635643 39.19871902 87.88326836 C39.53828523 89.55842411 39.87878721 91.23339046 40.22025681 92.90815926 C40.69175777 95.22215866 41.15958571 97.53687097 41.62646484 99.85180664 C41.76665039 100.5357399 41.90683594 101.21967316 42.05126953 101.92433167 C42.60361487 104.67991971 43 107.17987797 43 110 C36.73 110 30.46 110 24 110 C22.20673713 101.93031708 21.03187566 94.18129988 20 86 C13.73 85.67 7.46 85.34 1 85 C0.42673566 89.85963201 0.42673566 89.85963201 -0.13623047 94.72045898 C-0.77380095 99.96727315 -1.83923008 104.77653537 -3 110 C-9.27 110 -15.54 110 -22 110 C-20.32603711 98.2486798 -18.01844555 86.65423768 -15.68359375 75.01953125 C-15.26269487 72.91301274 -14.84196717 70.80646003 -14.42140198 68.69987488 C-13.5449324 64.31313002 -12.6664019 59.92680444 -11.78637695 55.54077148 C-10.65704945 49.91133806 -9.53296455 44.28087249 -8.41038418 38.65009022 C-7.5451791 34.31325295 -6.67724047 29.97696632 -5.80845833 25.64084435 C-5.39255082 23.56331009 -4.97750255 21.48560363 -4.56332207 19.40772438 C-3.9869742 16.51840151 -3.40695657 13.62983972 -2.82592773 10.74145508 C-2.65500107 9.88074905 -2.4840744 9.02004303 -2.30796814 8.133255 C-1.11427221 2.22854443 -1.11427221 2.22854443 0 0 Z " fill="#FEFCFC" transform="translate(881,307)"/>
<path d="M0 0 C5.08903469 3.71600305 7.27331379 9.11291013 9.203125 14.90234375 C9.28456355 16.52953857 9.3106552 18.15986094 9.30078125 19.7890625 C9.29755859 20.72685547 9.29433594 21.66464844 9.29101562 22.63085938 C9.27844727 24.09555664 9.27844727 24.09555664 9.265625 25.58984375 C9.26111328 26.57791016 9.25660156 27.56597656 9.25195312 28.58398438 C9.2401682 31.02346333 9.22223283 33.46291116 9.203125 35.90234375 C2.933125 35.90234375 -3.336875 35.90234375 -9.796875 35.90234375 C-10.171875 26.65234375 -10.171875 26.65234375 -10.27490234 23.75683594 C-10.3105127 22.99532227 -10.34612305 22.23380859 -10.3828125 21.44921875 C-10.4142334 20.67416992 -10.4456543 19.89912109 -10.47802734 19.10058594 C-10.83669588 16.62780533 -11.46485545 15.0131944 -12.796875 12.90234375 C-16.48580616 10.44305631 -19.51328921 10.20928796 -23.796875 10.90234375 C-27.24000214 13.02682645 -28.51305047 14.05087016 -29.796875 17.90234375 C-29.90120806 20.00175755 -29.94550285 22.10433134 -29.95800781 24.20629883 C-29.96761536 25.50807571 -29.9772229 26.8098526 -29.98712158 28.15107727 C-29.99196997 29.57467473 -29.9962487 30.99827423 -30 32.421875 C-30.00575422 33.88294984 -30.01151192 35.34402467 -30.01727295 36.80509949 C-30.02777575 39.86917471 -30.03362294 42.93322376 -30.03710938 45.99731445 C-30.04258865 49.91469476 -30.06660726 53.83172654 -30.09508133 57.74899769 C-30.11374941 60.76796972 -30.11891554 63.78685855 -30.12044525 66.80588341 C-30.12346357 68.24951772 -30.13146436 69.69315086 -30.14463043 71.13672829 C-30.16177416 73.16115003 -30.15795388 75.18571604 -30.15332031 77.21020508 C-30.15696594 78.3603157 -30.16061157 79.51042633 -30.16436768 80.69538879 C-29.74564997 84.34936318 -28.67250545 86.75742302 -26.796875 89.90234375 C-24.44682465 91.68514057 -22.78922491 91.90348313 -19.859375 92.33984375 C-15.7561113 91.75366322 -14.4012227 90.02756099 -11.796875 86.90234375 C-10.62218056 84.55295487 -10.59652611 82.9516117 -10.48046875 80.33203125 C-10.43857422 79.43613281 -10.39667969 78.54023438 -10.35351562 77.6171875 C-10.31419922 76.68003906 -10.27488281 75.74289062 -10.234375 74.77734375 C-10.16959961 73.36001953 -10.16959961 73.36001953 -10.10351562 71.9140625 C-9.9972856 69.57700203 -9.89656229 67.23969245 -9.796875 64.90234375 C-3.526875 64.90234375 2.743125 64.90234375 9.203125 64.90234375 C9.72487277 90.98973213 9.72487277 90.98973213 2.453125 99.83984375 C-2.98698784 105.49955748 -8.72538669 107.52452514 -16.5234375 108.10546875 C-26.04415853 108.25944268 -34.20622949 107.47599745 -41.734375 101.21484375 C-49.50365547 93.61204786 -51.79657206 84.47747226 -52.0715332 73.82275391 C-52.09131939 71.52904017 -52.09944944 69.23520463 -52.09765625 66.94140625 C-52.10194138 65.71505463 -52.1062265 64.488703 -52.11064148 63.22518921 C-52.11636191 60.64166885 -52.11690199 58.0581324 -52.11254883 55.47460938 C-52.10939048 51.54659231 -52.13287279 47.61933034 -52.15820312 43.69140625 C-52.16047667 41.17057386 -52.16117936 38.64973946 -52.16015625 36.12890625 C-52.169366 34.96710846 -52.17857574 33.80531067 -52.18806458 32.60830688 C-52.13084452 22.39945308 -50.69041272 9.79588147 -43.078125 2.18359375 C-30.80546488 -7.75141682 -13.30049102 -8.12486516 0 0 Z " fill="#FEFBFB" transform="translate(606.796875,311.09765625)"/>
<path d="M0 0 C6.52046555 3.90785117 10.28575708 9.82765278 12.65625 16.94921875 C14.05006861 24.36602326 13.51396293 31.86425199 13.30078125 39.37890625 C6.70078125 39.37890625 0.10078125 39.37890625 -6.69921875 39.37890625 C-6.71339844 37.92097656 -6.72757813 36.46304688 -6.7421875 34.9609375 C-6.78909502 33.03772903 -6.83734237 31.11455292 -6.88671875 29.19140625 C-6.89251953 28.23169922 -6.89832031 27.27199219 -6.90429688 26.28320312 C-7.05040083 21.59164267 -7.16400719 19.10857498 -10 15.2421875 C-13.30692885 12.95940159 -14.88025684 12.63699754 -18.765625 12.88671875 C-22.1190897 13.74032795 -23.6794938 15.68593965 -25.69921875 18.37890625 C-26.84526717 21.70446997 -26.83800036 24.9000589 -26.86035156 28.39746094 C-26.86995911 29.6126239 -26.87956665 30.82778687 -26.88946533 32.07977295 C-26.89584015 34.04542206 -26.89584015 34.04542206 -26.90234375 36.05078125 C-26.90517113 36.72114662 -26.9079985 37.39151199 -26.91091156 38.08219147 C-26.92588086 41.63162121 -26.9351238 45.18101057 -26.93945312 48.73046875 C-26.94492608 52.37971516 -26.96893524 56.02858625 -26.99742508 59.6777153 C-27.01614141 62.49860681 -27.02126187 65.31940965 -27.022789 68.14035797 C-27.02725108 70.1343672 -27.04585489 72.1283288 -27.0647583 74.12225342 C-27.04820427 80.89463115 -26.77967017 86.2836247 -23.69921875 92.37890625 C-20.93469842 93.76116641 -18.65308245 93.47416012 -15.57421875 93.44140625 C-14.47851562 93.43238281 -13.3828125 93.42335938 -12.25390625 93.4140625 C-11.41085937 93.40246094 -10.5678125 93.39085937 -9.69921875 93.37890625 C-8.15244047 89.91358017 -7.42454354 87.08356298 -7.28515625 83.296875 C-7.24648438 82.36552734 -7.2078125 81.43417969 -7.16796875 80.47460938 C-7.13703125 79.51490234 -7.10609375 78.55519531 -7.07421875 77.56640625 C-7.01621094 76.0978418 -7.01621094 76.0978418 -6.95703125 74.59960938 C-6.86311504 72.19300645 -6.78009311 69.78598274 -6.69921875 67.37890625 C-0.09921875 67.37890625 6.50078125 67.37890625 13.30078125 67.37890625 C13.69347414 92.31490493 13.69347414 92.31490493 5.30078125 103.37890625 C2.23828125 105.87890625 2.23828125 105.87890625 -0.69921875 107.37890625 C-1.38371094 107.73339844 -2.06820312 108.08789062 -2.7734375 108.453125 C-7.0050197 109.79209026 -11.03720316 109.70772288 -15.44921875 109.69140625 C-16.30515625 109.70751953 -17.16109375 109.72363281 -18.04296875 109.74023438 C-26.39235717 109.74655967 -33.87564123 108.06026074 -40.12890625 102.2578125 C-45.51272517 95.81597942 -47.80805599 88.56586511 -47.86035156 80.31616211 C-47.86995911 79.09066147 -47.87956665 77.86516083 -47.88946533 76.6025238 C-47.89431617 75.26626778 -47.8985943 73.93000957 -47.90234375 72.59375 C-47.90517113 71.91609652 -47.9079985 71.23844303 -47.91091156 70.54025459 C-47.92588817 66.94846332 -47.93512506 63.35671198 -47.93945312 59.76489258 C-47.9449109 56.08231213 -47.96888548 52.40010645 -47.99742508 48.71764278 C-48.01620376 45.8631744 -48.02126524 43.00879316 -48.022789 40.15426826 C-48.02722949 38.14543985 -48.04580738 36.13665836 -48.0647583 34.12791443 C-48.039412 23.59138054 -46.96455288 12.61794495 -39.69921875 4.37890625 C-28.93939871 -4.33565874 -12.58924873 -5.48272289 0 0 Z " fill="#FEFBFB" transform="translate(796.69921875,129.62109375)"/>
<path d="M0 0 C5.90689815 3.892066 9.90488949 8.35663599 11.56030273 15.37573242 C11.98861696 17.93206203 12.11435706 20.27465517 12.09765625 22.86328125 C12.09443359 23.74951172 12.09121094 24.63574219 12.08789062 25.54882812 C12.07532227 26.9168457 12.07532227 26.9168457 12.0625 28.3125 C12.05798828 29.24384766 12.05347656 30.17519531 12.04882812 31.13476562 C12.03709254 33.42320487 12.01915861 35.71161086 12 38 C5.73 38 -0.54 38 -7 38 C-7.01417969 36.61425781 -7.02835938 35.22851562 -7.04296875 33.80078125 C-7.08987798 31.97132122 -7.13812532 30.14189515 -7.1875 28.3125 C-7.19330078 27.40048828 -7.19910156 26.48847656 -7.20507812 25.54882812 C-7.35410431 20.99525022 -7.52266632 18.65509933 -10.265625 14.890625 C-13.81302274 12.43785285 -15.73578951 12.33415864 -19.91015625 12.5703125 C-22.95949622 13.1972796 -24.26367015 14.4678523 -26 17 C-27.09529859 20.28589578 -27.140169 22.73626975 -27.16113281 26.19628906 C-27.17074036 27.4748175 -27.1803479 28.75334595 -27.19024658 30.07061768 C-27.19509552 31.46895163 -27.19937411 32.86728767 -27.203125 34.265625 C-27.20887994 35.70188396 -27.21463763 37.13814291 -27.22039795 38.57440186 C-27.23090149 41.58720252 -27.23674794 44.59997657 -27.24023438 47.61279297 C-27.24570847 51.46057566 -27.2697156 55.30800258 -27.29820633 59.15567398 C-27.31689678 62.12407433 -27.32204177 65.09239022 -27.32357025 68.06084442 C-27.32658443 69.4785328 -27.33457101 70.89622013 -27.34775543 72.3138504 C-27.59758414 82.60761569 -27.59758414 82.60761569 -24 92 C-21.5558206 93.2220897 -19.78970128 93.23641068 -17.0625 93.3125 C-16.18722656 93.34988281 -15.31195312 93.38726562 -14.41015625 93.42578125 C-11.86582554 93.22111478 -11.86582554 93.22111478 -10.24609375 91.16796875 C-8.3865771 87.93275952 -7.8557131 85.2144645 -7.68359375 81.55078125 C-7.64548584 80.78677002 -7.60737793 80.02275879 -7.56811523 79.2355957 C-7.52501221 78.27097412 -7.48190918 77.30635254 -7.4375 76.3125 C-7.293125 73.239375 -7.14875 70.16625 -7 67 C-0.73 67 5.54 67 12 67 C12.10904666 70.45920241 12.18781572 73.91488907 12.25 77.375 C12.28351562 78.34050781 12.31703125 79.30601562 12.3515625 80.30078125 C12.46895878 89.0468044 10.64875557 96.30003873 4.75 102.9375 C-0.54671686 108.27354892 -7.47393316 109.38167211 -14.66381836 109.51928711 C-15.5585083 109.51292236 -16.45319824 109.50655762 -17.375 109.5 C-18.3038501 109.49427979 -19.2327002 109.48855957 -20.18969727 109.48266602 C-29.11196051 109.24954275 -35.20091226 107.22392368 -41.4375 100.6875 C-46.38667346 94.28433207 -48.10669802 86.69987613 -48.17700195 78.75366211 C-48.18983719 77.48811996 -48.20267242 76.22257782 -48.21589661 74.91868591 C-48.2240683 73.53824255 -48.2315112 72.1577947 -48.23828125 70.77734375 C-48.24235678 70.07762514 -48.2464323 69.37790653 -48.25063133 68.65698433 C-48.27146706 64.94849065 -48.28577576 61.24003362 -48.29516602 57.53149414 C-48.30618523 53.72774242 -48.3405392 49.92458298 -48.38033772 46.12103939 C-48.40667281 43.17392501 -48.41487298 40.22694768 -48.41844749 37.27972603 C-48.42327528 35.87927849 -48.43477859 34.47883547 -48.45348549 33.07850456 C-48.58242988 22.78065838 -47.42243803 14.43563687 -41.875 5.625 C-30.82872777 -4.46072682 -13.51141584 -6.13958736 0 0 Z " fill="#FEFDFD" transform="translate(652,130)"/>
<path d="M0 0 C8.69284796 4.8078594 14.25391836 10.56742206 17.6703186 19.9909668 C18.76202826 24.04870855 18.64823323 28.05457551 18.57421875 32.23046875 C18.57119751 33.04805664 18.56817627 33.86564453 18.56506348 34.70800781 C18.54951382 37.72604216 18.50763121 40.7438948 18.46875 43.76171875 C18.406875 50.52671875 18.345 57.29171875 18.28125 64.26171875 C-2.83875 64.26171875 -23.95875 64.26171875 -45.71875 64.26171875 C-45.8425 57.41421875 -45.96625 50.56671875 -46.09375 43.51171875 C-46.14837402 41.37606445 -46.20299805 39.24041016 -46.25927734 37.04003906 C-46.4341874 25.32886909 -45.98784692 16.12964796 -37.70727539 7.05810547 C-27.43201602 -2.84695918 -13.180508 -6.09812464 0 0 Z " fill="#FEFDFE" transform="translate(1161.71875,605.73828125)"/>
<path d="M0 0 C15.51 0 31.02 0 47 0 C47 4.95 47 9.9 47 15 C38.42 15 29.84 15 21 15 C21 25.23 21 35.46 21 46 C27.6 46 34.2 46 41 46 C41 50.62 41 55.24 41 60 C34.4 60 27.8 60 21 60 C21 71.88 21 83.76 21 96 C29.58 96 38.16 96 47 96 C47 100.62 47 105.24 47 110 C31.49 110 15.98 110 0 110 C0 73.7 0 37.4 0 0 Z " fill="#FDF8F8" transform="translate(393,128)"/>
<path d="M0 0 C15.18 0 30.36 0 46 0 C46 4.62 46 9.24 46 14 C37.42 14 28.84 14 20 14 C20 24.23 20 34.46 20 45 C26.6 45 33.2 45 40 45 C40 49.62 40 54.24 40 59 C33.4 59 26.8 59 20 59 C20 70.88 20 82.76 20 95 C28.58 95 37.16 95 46 95 C46 99.62 46 104.24 46 109 C30.82 109 15.64 109 0 109 C0 73.03 0 37.06 0 0 Z " fill="#FEFDFD" transform="translate(468,308)"/>
<path d="M0 0 C0.33 0 0.66 0 1 0 C1 39.6 1 79.2 1 120 C-13.19 120 -27.38 120 -42 120 C-41.30615112 116.5307556 -40.64099633 113.74963439 -39.43359375 110.5078125 C-38.95974243 109.22342285 -38.95974243 109.22342285 -38.47631836 107.91308594 C-38.1335083 106.99301758 -37.79069824 106.07294922 -37.4375 105.125 C-34.70019043 97.68966926 -32.01782151 90.2412335 -29.4375 82.75 C-23.70224946 66.14391659 -17.73714638 49.61840367 -11.81689453 33.07763672 C-9.22834026 25.84476571 -6.64546308 18.60986911 -4.0625 11.375 C-3.26174803 9.13280204 -2.46097029 6.89061329 -1.66015625 4.6484375 C-1.33668213 3.74270996 -1.01320801 2.83698242 -0.67993164 1.90380859 C-0.4555542 1.27555176 -0.23117676 0.64729492 0 0 Z " fill="#C51A2E" transform="translate(198,186)"/>
<path d="M0 0 C6.6 0 13.2 0 20 0 C20 31.35 20 62.7 20 95 C28.91 95 37.82 95 47 95 C47 99.62 47 104.24 47 109 C31.49 109 15.98 109 0 109 C0 73.03 0 37.06 0 0 Z " fill="#FEFDFD" transform="translate(699,308)"/>
<path d="M0 0 C6.6 0 13.2 0 20 0 C20 36.3 20 72.6 20 110 C13.4 110 6.8 110 0 110 C0 73.7 0 37.4 0 0 Z " fill="#FEFBFB" transform="translate(756,307)"/>
<path d="M0 0 C6.6 0 13.2 0 20 0 C20 36.3 20 72.6 20 110 C13.4 110 6.8 110 0 110 C0 73.7 0 37.4 0 0 Z " fill="#FEFBFB" transform="translate(825,128)"/>
<path d="M0 0 C2.75569447 2.18159145 4.43588747 3.87177494 6 7 C6.11239167 9.15844442 6.15936369 11.32039283 6.17700195 13.48168945 C6.18357315 14.14694641 6.19014435 14.81220337 6.19691467 15.49761963 C6.21665161 17.70284129 6.22831138 19.90799482 6.23828125 22.11328125 C6.24235678 22.86645315 6.2464323 23.61962505 6.25063133 24.39562035 C6.2714943 28.38247784 6.2857947 32.36930089 6.29516602 36.35620117 C6.30622785 40.47221781 6.34062383 44.58769343 6.38033772 48.70351887 C6.40649687 51.87000018 6.41485721 55.03635249 6.41844749 58.20293236 C6.42331575 59.71997924 6.43493667 61.23702027 6.45348549 62.75396156 C6.4778626 64.87978453 6.47691555 67.0042067 6.4699707 69.13012695 C6.47877007 70.94309013 6.47877007 70.94309013 6.48774719 72.79267883 C5.90517549 76.62354566 4.6883847 78.26350042 2 81 C-1.6967396 82.8483698 -5.96443821 82.47016254 -10 82 C-13.52590223 79.620016 -14.67252889 76.96043563 -16 73 C-16.26742554 69.97145081 -16.26742554 69.97145081 -16.29052734 66.56079102 C-16.30328705 65.27918594 -16.31604675 63.99758087 -16.32919312 62.67713928 C-16.33225062 61.28606315 -16.33447846 59.89498498 -16.3359375 58.50390625 C-16.3423696 57.06810881 -16.34909827 55.63231267 -16.35610962 54.19651794 C-16.36806351 51.19144655 -16.37179231 48.18648996 -16.37060547 45.18139648 C-16.37040217 41.34014972 -16.39772253 37.49964193 -16.43214989 33.65857029 C-16.45443884 30.69447988 -16.45844245 27.73056691 -16.45738602 24.76640129 C-16.45973828 23.35067125 -16.46854073 21.93493605 -16.48405075 20.51928902 C-16.50375093 18.53582492 -16.49533987 16.55214269 -16.48583984 14.56860352 C-16.48868988 13.44229019 -16.49153992 12.31597687 -16.49447632 11.15553284 C-15.88068959 7.23861282 -14.4505869 5.08373174 -12 2 C-7.99745384 -0.66836411 -4.70686701 -0.8340238 0 0 Z " fill="#C51C30" transform="translate(897,142)"/>
<path d="M0 0 C12.86206897 0 12.86206897 0 17 3 C19.83754353 6.85395367 20.37796021 9.60253187 20.38818359 14.34741211 C20.39764008 15.60899643 20.40709656 16.87058075 20.4168396 18.1703949 C20.41146897 19.53938106 20.40531579 20.90836434 20.3984375 22.27734375 C20.40046026 23.69072113 20.40337338 25.10409749 20.40713501 26.51747131 C20.41155036 29.47553472 20.40515404 32.43332576 20.39111328 35.39135742 C20.37403718 39.17198642 20.383857 42.95197569 20.40183067 46.73258114 C20.41270349 49.6503628 20.40920598 52.56799438 20.4014473 55.48578072 C20.39945412 56.87915689 20.40187342 58.27254695 20.40888596 59.66590691 C20.41655549 61.61833286 20.40278166 63.57080692 20.38818359 65.52319336 C20.38579681 66.63174179 20.38341003 67.74029022 20.38095093 68.88243103 C19.93109773 72.56387209 19.00423213 74.88119015 17 78 C12 81 12 81 0 81 C0 54.27 0 27.54 0 0 Z " fill="#C61C30" transform="translate(954,322)"/>
<path d="M0 0 C12 0 12 0 15.625 1.625 C19.69244728 5.69244728 20.24865211 10.27516095 20.2746582 15.86254883 C20.28895622 17.56010063 20.28895622 17.56010063 20.30354309 19.29194641 C20.30263168 20.50142441 20.30172028 21.7109024 20.30078125 22.95703125 C20.30506638 24.21456711 20.3093515 25.47210297 20.31376648 26.76774597 C20.31950204 29.42481514 20.320955 32.08149491 20.31567383 34.73852539 C20.30989274 38.12086644 20.3267876 41.50265746 20.3500185 44.88490772 C20.36841606 48.13811064 20.36456794 51.39128577 20.36328125 54.64453125 C20.372491 55.84793655 20.38170074 57.05134186 20.39118958 58.29121399 C20.31047977 73.07781161 20.31047977 73.07781161 15.58345032 78.67829895 C10.95620666 82.54064482 6.2412185 81 0 81 C0 54.27 0 27.54 0 0 Z " fill="#C51C30" transform="translate(812,322)"/>
<path d="M0 0 C12.57142857 0 12.57142857 0 16 3 C19.19821537 6.40584174 19.38658886 8.90369881 19.41992188 13.50927734 C19.42839142 14.15371292 19.43686096 14.7981485 19.44558716 15.46211243 C19.46893551 17.58692304 19.46997981 19.71100844 19.46875 21.8359375 C19.47585378 23.31800626 19.4835531 24.80007228 19.49182129 26.28213501 C19.50526168 29.38738651 19.50683735 32.49238382 19.50097656 35.59765625 C19.49508565 39.56802968 19.52564675 43.53717806 19.56609344 47.50731468 C19.59200532 50.56837481 19.59484469 53.6291415 19.59120178 56.69029617 C19.59289031 58.15348002 19.60250727 59.6166778 19.62034607 61.07975388 C19.75988146 73.9405505 19.75988146 73.9405505 16.65039062 77.88134766 C10.97300382 82.41970089 8.39866775 81 0 81 C0 54.27 0 27.54 0 0 Z " fill="#C5192D" transform="translate(414,322)"/>
<path d="M0 0 C12.42307692 0 12.42307692 0 16 3 C19.50970549 6.50970549 19.13370081 10.33525411 19.17700195 15.1262207 C19.18983719 16.36463211 19.20267242 17.60304352 19.21589661 18.87898254 C19.22406484 20.22791135 19.23150842 21.57684471 19.23828125 22.92578125 C19.24235678 23.60842733 19.2464323 24.29107342 19.25063133 24.99440575 C19.27145319 28.60751412 19.2857718 32.22058494 19.29516602 35.83374023 C19.30622467 39.55269345 19.34062847 43.2710474 19.38033772 46.98978901 C19.40656155 49.86125248 19.41486287 52.73257429 19.41844749 55.60414696 C19.42329833 56.97440833 19.43486936 58.34466401 19.45348549 59.71480751 C19.62507302 73.18003296 19.62507302 73.18003296 15 79 C9.85399076 81.75251657 6.21720381 81 0 81 C0 54.27 0 27.54 0 0 Z " fill="#C5192D" transform="translate(473,143)"/>
<path d="M0 0 C0.79075928 0.00523682 1.58151855 0.01047363 2.39624023 0.01586914 C3.67724609 0.02070312 3.67724609 0.02070312 4.98413086 0.02563477 C6.33087891 0.03820312 6.33087891 0.03820312 7.70483398 0.05102539 C8.6065332 0.05553711 9.50823242 0.06004883 10.43725586 0.06469727 C12.67234712 0.07652315 14.90730835 0.09300319 17.14233398 0.11352539 C15.53418174 3.19908579 13.86379317 6.24436315 12.15649414 9.27612305 C11.43874385 10.5765055 10.73965464 11.88726951 10.05395508 13.20483398 C3.13259444 26.45681492 3.13259444 26.45681492 -1.94750977 28.13305664 C-4.75871505 28.11496652 -7.15127015 27.85443985 -9.85766602 27.11352539 C-3.27965028 0.20042547 -3.27965028 0.20042547 0 0 Z " fill="#FDFAFA" transform="translate(896.857666015625,91.886474609375)"/>
<path d="M0 0 C0.33 0 0.66 0 1 0 C7 31.86462882 7 31.86462882 7 43 C2.38 43 -2.24 43 -7 43 C-5.27392262 28.51141112 -3.07788412 14.26450862 0 0 Z " fill="#C9283B" transform="translate(706,157)"/>
<path d="M0 0 C0.33 0 0.66 0 1 0 C2.00137221 5.48015401 2.99816105 10.96111445 3.99072266 16.44287109 C4.32898311 18.30735753 4.66849211 20.17161791 5.00927734 22.03564453 C5.49906031 24.71588541 5.98433886 27.39690873 6.46875 30.078125 C6.62186646 30.91055725 6.77498291 31.7429895 6.93273926 32.60064697 C7.07288452 33.38115417 7.21302979 34.16166138 7.35742188 34.96582031 C7.48177612 35.64976868 7.60613037 36.33371704 7.73425293 37.03839111 C8 39 8 39 8 43 C3.38 43 -1.24 43 -6 43 C-6.4986603 33.95139327 -4.63907539 25.28832379 -3 16.4375 C-2.71021897 14.84062501 -2.42115026 13.24362059 -2.1328125 11.64648438 C-1.43008554 7.76278068 -0.71771832 3.88095999 0 0 Z " fill="#C82639" transform="translate(656,336)"/>
<path d="M0 0 C2.43274672 3.64912008 2.85421099 7.04119599 3.5078125 11.28125 C3.63815887 12.0911438 3.76850525 12.9010376 3.90280151 13.73547363 C4.17676695 15.44631023 4.44720055 17.1577156 4.71435547 18.86962891 C5.12362151 21.4911701 5.54325058 24.11088459 5.96484375 26.73046875 C6.22977348 28.39313259 6.49411625 30.05589009 6.7578125 31.71875 C6.88278107 32.50318481 7.00774963 33.28761963 7.13650513 34.0958252 C7.60323802 37.09677666 8 39.95780479 8 43 C3.38 43 -1.24 43 -6 43 C-5.37776747 34.43782108 -4.34987403 26.03833949 -3 17.5625 C-2.82210937 16.41845703 -2.64421875 15.27441406 -2.4609375 14.09570312 C-1.72181186 9.37688232 -0.96486568 4.67863795 0 0 Z " fill="#C82538" transform="translate(891,336)"/>
</svg>
