<?xml version="1.0" encoding="UTF-8"?>
<svg version="1.1" xmlns="http://www.w3.org/2000/svg" width="800" height="800">
<path d="M0 0 C264 0 528 0 800 0 C800 264 800 528 800 800 C536 800 272 800 0 800 C0 536 0 272 0 0 Z " fill="#FF3A21" transform="translate(0,0)"/>
<path d="M0 0 C33.66 0 67.32 0 102 0 C102 33.99 102 67.98 102 103 C90.45 103 78.9 103 67 103 C67 90.46 67 77.92 67 65 C60.79174382 70.383087 60.79174382 70.383087 54.87890625 76.00756836 C54.17878418 76.70776596 53.47866211 77.40796356 52.75732422 78.12937927 C52.03303223 78.85883255 51.30874023 79.58828583 50.5625 80.33984375 C49.79695801 81.10680069 49.03141602 81.87375763 48.24267578 82.66395569 C45.82606803 85.08610881 43.41298274 87.51173612 41 89.9375 C39.35049314 91.59202893 37.70075571 93.24632802 36.05078125 94.90039062 C32.03118629 98.93094202 28.01446831 102.96434272 24 107 C25.20610706 109.46461002 26.47220279 111.79059678 27.8828125 114.15234375 C32.46753131 121.83264823 36.25638266 129.57016591 39.4375 137.9375 C39.9317749 139.23192017 39.9317749 139.23192017 40.43603516 140.55249023 C42.43172096 145.96793738 43.90141747 151.33712576 45 157 C45.20882813 158.010625 45.41765625 159.02125 45.6328125 160.0625 C51.41386259 194.56527515 43.33773 230.3532326 23.3125 259 C1.92254092 288.58725964 -27.44737128 305.38157956 -63 313 C-63 325.87 -63 338.74 -63 352 C-49.47 352 -35.94 352 -22 352 C-22 364.54 -22 377.08 -22 390 C-35.53 390 -49.06 390 -63 390 C-63 402.87 -63 415.74 -63 429 C-75.54 429 -88.08 429 -101 429 C-101 416.13 -101 403.26 -101 390 C-114.53 390 -128.06 390 -142 390 C-142 377.46 -142 364.92 -142 352 C-128.47 352 -114.94 352 -101 352 C-101 339.13 -101 326.26 -101 313 C-103.31 313 -105.62 313 -108 313 C-139.07772038 308.54213027 -168.72468955 289.35877543 -187.8828125 264.90234375 C-210.33997861 234.11696659 -220.18966501 198.89372819 -214.54418945 160.98388672 C-209.93774366 133.82458192 -196.71013974 110.86305328 -178 91 C-177.3503125 90.27425781 -176.700625 89.54851562 -176.03125 88.80078125 C-164.97403886 76.95680701 -150.71573125 68.49556992 -136 62 C-134.91332031 61.51917969 -133.82664062 61.03835938 -132.70703125 60.54296875 C-103.26384402 48.43651537 -67.58961557 48.22058994 -38 60 C-25.8168755 65.11300276 -14.49508059 70.93884348 -4 79 C1.47313966 74.43852453 6.53954809 69.59258679 11.55859375 64.5390625 C12.34774673 63.74849457 13.13689972 62.95792664 13.94996643 62.1434021 C16.44818661 59.63962374 18.94289044 57.13237525 21.4375 54.625 C23.13974208 52.91773752 24.84221373 51.21070391 26.54492188 49.50390625 C30.69970907 45.33900024 34.84971448 41.16941126 39 37 C19.695 36.505 19.695 36.505 0 36 C0 24.12 0 12.24 0 0 Z " fill="#FFFDFD" transform="translate(483,302)"/>
<path d="M0 0 C21.46900639 17.08636784 37.28103714 38.95350171 40.59619141 66.7890625 C43.13649097 93.33861158 36.93888802 119.30725684 19.87426758 140.31567383 C3.58262946 159.7225089 -18.80007147 173.13298389 -44.16796875 176.25390625 C-72.82290344 178.65455677 -98.65247435 170.02163462 -120.66015625 151.56445312 C-139.16306595 135.48226089 -149.31506757 112.22337066 -152.16796875 88.25390625 C-153.86868901 58.7582753 -144.33810766 33.91202593 -124.984375 11.75390625 C-93.07252167 -21.97311672 -37.62221309 -26.8880432 0 0 Z " fill="#FF3B23" transform="translate(454.16796875,405.74609375)"/>
<path d="M0 0 C23.43 0 46.86 0 71 0 C71 8.25 71 16.5 71 25 C55.49 25 39.98 25 24 25 C24 35.56 24 46.12 24 57 C25.98 55.68 27.96 54.36 30 53 C39.63101034 49.54384315 50.34020935 49.55912811 59.75390625 53.63671875 C65.60061342 57.1854158 68.73872148 60.51990431 71.75 66.6875 C72.32234375 67.82574219 72.8946875 68.96398437 73.484375 70.13671875 C77.53991029 79.7008354 77.402119 89.84279679 77.375 100.0625 C77.37478851 100.7944458 77.37457703 101.5263916 77.37435913 102.28051758 C77.33115731 117.2369481 76.76402664 133.21644453 66.25390625 144.94921875 C56.18610335 154.61187868 43.7375037 155.41262457 30.4921875 155.20703125 C20.55561206 154.86917939 13.0853222 152.11389204 6 145 C-2.71563748 134.49765684 -3 121.06232212 -3 108 C6.57 108 16.14 108 26 108 C26.495 114.93 26.495 114.93 27 122 C28.76931519 128.12504843 28.76931519 128.12504843 33 132 C36.56516632 132.58685865 39.81772007 132.2875816 43.3125 131.4375 C47.74053779 127.66546781 48.52318924 121.50019928 49 116 C49.16403953 111.91581762 49.18507009 107.83711678 49.1875 103.75 C49.20586914 102.14705078 49.20586914 102.14705078 49.22460938 100.51171875 C49.2405046 91.79053694 48.748718 83.01371603 45 75 C43.15411599 74.10203516 43.15411599 74.10203516 41 74 C40.27941406 73.90976563 39.55882812 73.81953125 38.81640625 73.7265625 C34.62742174 73.5378041 32.62424646 73.55217102 29.125 76.0625 C26.49406906 79.47301489 26.49406906 79.47301489 24 86 C15.75 86 7.5 86 -1 86 C-1.14661088 57.31313742 -0.68086508 28.68144168 0 0 Z " fill="#FFFCFC" transform="translate(67,69)"/>
<path d="M0 0 C39.6 0 79.2 0 120 0 C120 10.23 120 20.46 120 31 C80.4 31 40.8 31 0 31 C0 20.77 0 10.54 0 0 Z " fill="#FFFCFC" transform="translate(339,496)"/>
<path d="M0 0 C39.6 0 79.2 0 120 0 C120 9.9 120 19.8 120 30 C80.4 30 40.8 30 0 30 C0 20.1 0 10.2 0 0 Z " fill="#FFFEFE" transform="translate(339,446)"/>
<path d="M0 0 C3.13871141 2.71070531 5.55489261 5.10540144 7 9 C7.20447642 11.86412395 7.30407814 14.6281952 7.30078125 17.4921875 C7.30506638 18.31574738 7.3093515 19.13930725 7.31376648 19.98782349 C7.31950125 21.72771283 7.32001632 23.46762615 7.31567383 25.20751953 C7.31251925 27.85881861 7.33596406 30.50899548 7.36132812 33.16015625 C7.36360187 34.85416527 7.36430427 36.54817727 7.36328125 38.2421875 C7.372491 39.02987518 7.38170074 39.81756287 7.39118958 40.62911987 C7.33887352 46.90679246 5.66193167 50.87642064 1.75 55.875 C-2.55648376 59.25477207 -8.25172023 58.51056016 -13.44140625 58.46875 C-17.29630066 57.96097028 -19.06353173 57.52988036 -22 55 C-25.69926231 49.44062237 -26.59833994 44.46882884 -26.53125 37.8984375 C-26.5350769 37.05834137 -26.53890381 36.21824524 -26.54284668 35.35269165 C-26.54555114 33.58960765 -26.53829338 31.82648251 -26.52148438 30.06347656 C-26.49999792 27.37473921 -26.5213622 24.68865692 -26.546875 22 C-26.54423251 20.27863998 -26.53910917 18.5572816 -26.53125 16.8359375 C-26.53934692 16.03892426 -26.54744385 15.24191101 -26.55578613 14.42074585 C-26.46787843 9.16011558 -25.43155283 6.20132926 -22 2 C-15.96690636 -3.46749112 -7.14994279 -3.33663997 0 0 Z " fill="#FFF7F6" transform="translate(502,165)"/>
<path d="M0 0 C20 0 20 0 27 3 C31.66565878 8.03400027 32.16679726 11.40914382 32.203125 18.078125 C32.20882507 18.88231873 32.21452515 19.68651245 32.22039795 20.51507568 C32.22985301 22.21983524 32.23638394 23.92461311 32.24023438 25.62939453 C32.24991025 28.22591544 32.28091563 30.8216347 32.3125 33.41796875 C32.31903319 35.07551614 32.32428242 36.73306919 32.328125 38.390625 C32.3404718 39.16271301 32.3528186 39.93480103 32.36553955 40.73028564 C32.34125398 46.66884074 30.96673714 50.72596019 27 55.3125 C19.64977927 61.51424874 9.08233086 58 0 58 C0 38.86 0 19.72 0 0 Z " fill="#FFF9F8" transform="translate(210,164)"/>
<path d="M0 0 C23 0 23 0 29 4 C32.09007633 8.57979605 32.45521104 12.79390443 32.43359375 18.1796875 C32.4388356 18.95128204 32.44407745 19.72287659 32.44947815 20.51785278 C32.45587423 22.14323733 32.45459273 23.76866831 32.44604492 25.39404297 C32.43754752 27.86120406 32.46630598 30.32603662 32.49804688 32.79296875 C32.49965966 34.38020765 32.49907988 35.96745059 32.49609375 37.5546875 C32.51294472 38.64570267 32.51294472 38.64570267 32.53013611 39.75875854 C32.45376938 45.46351323 31.17657267 49.21111174 28 54 C20 58 20 58 0 58 C0 38.86 0 19.72 0 0 Z " fill="#FFFBFB" transform="translate(377,69)"/>
<path d="M0 0 C22 0 22 0 29 4 C31.85480555 8.86599674 32.44773652 13.29934471 32.3984375 18.83984375 C32.40130768 19.56563126 32.40417786 20.29141876 32.40713501 21.03919983 C32.40916385 22.5644713 32.40371708 24.08976949 32.39111328 25.61499023 C32.3750647 27.92817397 32.3909887 30.2396047 32.41015625 32.55273438 C32.4318326 46.63580339 32.4318326 46.63580339 29 53 C19.59472595 60.64178516 14.07308327 58 0 58 C0 38.86 0 19.72 0 0 Z " fill="#FFFCFB" transform="translate(453,69)"/>
<path d="M0 0 C23.41935484 0 23.41935484 0 29.3125 4.9375 C32.70078919 9.07874234 32.33040115 14.14332297 32.2890625 19.296875 C31.86200442 23.29044513 30.70395878 25.06427332 28 28 C27.01 28.33 26.02 28.66 25 29 C25.31807617 30.10456543 25.31807617 30.10456543 25.64257812 31.23144531 C26.60049825 34.56942853 27.55033151 37.90966025 28.5 41.25 C28.83386719 42.40886719 29.16773438 43.56773437 29.51171875 44.76171875 C29.82753906 45.87675781 30.14335937 46.99179688 30.46875 48.140625 C30.76201172 49.16704102 31.05527344 50.19345703 31.35742188 51.25097656 C32 54 32 54 32 58 C28.7 58 25.4 58 22 58 C19.31669418 49.41342137 17.13497277 40.73496474 15 32 C13.35 32 11.7 32 10 32 C10 40.58 10 49.16 10 58 C6.7 58 3.4 58 0 58 C0 38.86 0 19.72 0 0 Z " fill="#FFFAF9" transform="translate(437,164)"/>
<path d="M0 0 C2.64 0 5.28 0 8 0 C13.01109689 9.37171486 16.92644375 19.19584766 21 29 C21.33 19.43 21.66 9.86 22 0 C24.97 0 27.94 0 31 0 C31 19.14 31 38.28 31 58 C28.69 58 26.38 58 24 58 C18.7455719 48.40056405 14.99823296 38.16499905 11 28 C10.67 38.23 10.34 48.46 10 59 C6.7 59 3.4 59 0 59 C0 39.53 0 20.06 0 0 Z " fill="#FFF4F3" transform="translate(367,164)"/>
<path d="M0 0 C3.19005462 2.45388817 4.72608858 4.18888309 6.4375 7.875 C6.75290952 11.56834374 6.67426617 15.17881697 6.4375 18.875 C3.1375 18.875 -0.1625 18.875 -3.5625 18.875 C-3.8925 15.245 -4.2225 11.615 -4.5625 7.875 C-5.84125 7.813125 -7.12 7.75125 -8.4375 7.6875 C-9.15679687 7.65269531 -9.87609375 7.61789063 -10.6171875 7.58203125 C-11.58011719 7.72705078 -11.58011719 7.72705078 -12.5625 7.875 C-14.98578692 11.50993038 -14.86865785 14.22625789 -14.86328125 18.4296875 C-14.86756638 19.16824982 -14.8718515 19.90681213 -14.87626648 20.66775513 C-14.88200585 22.22950212 -14.88251292 23.79127584 -14.87817383 25.35302734 C-14.8750205 27.73451776 -14.89845283 30.11475751 -14.92382812 32.49609375 C-14.92610194 34.01562344 -14.92680423 35.53515645 -14.92578125 37.0546875 C-14.934991 37.76317841 -14.94420074 38.47166931 -14.95368958 39.20162964 C-14.91303959 43.57835454 -14.3116192 46.42452877 -11.5625 49.875 C-9.0625 50.70833333 -9.0625 50.70833333 -6.5625 49.875 C-2.69518256 45.73144559 -2.86593841 40.2636477 -2.5625 34.875 C-4.5425 34.875 -6.5225 34.875 -8.5625 34.875 C-8.5625 32.565 -8.5625 30.255 -8.5625 27.875 C-3.2825 27.875 1.9975 27.875 7.4375 27.875 C7.4375 37.775 7.4375 47.675 7.4375 57.875 C4.7975 57.875 2.1575 57.875 -0.5625 57.875 C-0.8925 56.885 -1.2225 55.895 -1.5625 54.875 C-2.201875 55.535 -2.84125 56.195 -3.5 56.875 C-7.60992907 59.55903531 -10.77850266 59.58954969 -15.5625 58.875 C-19.71917985 57.1199574 -22.09199402 54.6233539 -24.5625 50.875 C-26.86950276 44.08161533 -26.90050333 37.61854694 -26.87817383 30.54174805 C-26.8750127 28.44592283 -26.89852604 26.35151089 -26.92382812 24.25585938 C-26.96524825 15.64898836 -26.88532302 8.6840898 -21 1.9375 C-15.29623352 -2.88876394 -6.86530976 -2.16799255 0 0 Z " fill="#FFF7F6" transform="translate(254.5625,69.125)"/>
<path d="M0 0 C3.63 0 7.26 0 11 0 C11.04958796 6.28050598 11.08580868 12.56089695 11.10986328 18.84155273 C11.11989563 20.97633857 11.13352464 23.11111074 11.15087891 25.24584961 C11.1752489 28.32148619 11.186511 31.39694043 11.1953125 34.47265625 C11.20563507 35.42084732 11.21595764 36.36903839 11.22659302 37.34596252 C11.22779709 44.52286309 10.56446566 51.13140129 6 57 C0.77166893 60.79054002 -4.79854857 60.64791284 -11 60 C-16.13616523 58.47817327 -18.27581851 55.82680071 -20.94589233 51.40844727 C-22.89297842 46.95970422 -22.61059777 42.4995241 -22.48828125 37.71875 C-22.48120651 36.66465942 -22.47413177 35.61056885 -22.46684265 34.52453613 C-22.43901945 31.1822795 -22.37630131 27.84174393 -22.3125 24.5 C-22.28740163 22.22398265 -22.26459117 19.94793885 -22.24414062 17.671875 C-22.18923194 12.11392769 -22.1030413 6.55725489 -22 1 C-18.7 1 -15.4 1 -12 1 C-11.98541748 2.33699951 -11.97083496 3.67399902 -11.95581055 5.05151367 C-11.89777876 10.01841799 -11.82054565 14.98487129 -11.73754883 19.95141602 C-11.70432254 22.09977898 -11.67628347 24.24822875 -11.65356445 26.39672852 C-11.61997669 29.48751776 -11.56765779 32.57751312 -11.51171875 35.66796875 C-11.50532883 36.62648239 -11.4989389 37.58499603 -11.49235535 38.57255554 C-11.38346975 43.52642089 -11.20219876 46.95531356 -8 51 C-5.02934491 50.65772428 -5.02934491 50.65772428 -2 50 C-0.80177128 47.60354256 -0.84372685 46.04337973 -0.79467773 43.36669922 C-0.77473251 42.40585419 -0.75478729 41.44500916 -0.73423767 40.45504761 C-0.70916893 38.89561935 -0.70916893 38.89561935 -0.68359375 37.3046875 C-0.66281265 36.24210724 -0.64203156 35.17952698 -0.62062073 34.08474731 C-0.55509739 30.68156562 -0.49622727 27.27830511 -0.4375 23.875 C-0.39431743 21.57160634 -0.35070323 19.26822074 -0.30664062 16.96484375 C-0.19941313 11.30997716 -0.09815351 5.65503108 0 0 Z " fill="#FFF7F6" transform="translate(291,68)"/>
<path d="M0 0 C5.36035132 5.78353695 5.09824143 9.33716864 5 17 C1.7 17 -1.6 17 -5 17 C-5.16276042 14.72135417 -5.32552083 12.44270833 -5.48828125 10.1640625 C-5.82990528 7.62078662 -5.82990528 7.62078662 -9 6 C-11.54230847 5.58320703 -11.54230847 5.58320703 -14 6 C-16.46522815 9.69784222 -16.28910546 12.53091521 -16.265625 16.80859375 C-16.26849518 17.9532888 -16.26849518 17.9532888 -16.27142334 19.12110901 C-16.27278348 20.73414439 -16.26909894 22.34719077 -16.26074219 23.96020508 C-16.25005467 26.42489333 -16.26063532 28.88885027 -16.2734375 31.35351562 C-16.27211559 32.9218766 -16.26955253 34.49023713 -16.265625 36.05859375 C-16.26967346 36.79411972 -16.27372192 37.52964569 -16.27789307 38.28746033 C-16.24388152 42.01397889 -16.06969942 44.83533299 -14 48 C-11.36 48 -8.72 48 -6 48 C-5.34 43.05 -4.68 38.1 -4 33 C-5.98 33 -7.96 33 -10 33 C-10 31.02 -10 29.04 -10 27 C-5.05 27 -0.1 27 5 27 C5 36.57 5 46.14 5 56 C2.69 56 0.38 56 -2 56 C-2.33 55.01 -2.66 54.02 -3 53 C-3.598125 53.66 -4.19625 54.32 -4.8125 55 C-9.47553375 57.9258251 -13.6343232 57.8824608 -19 57 C-22.30870381 55.61527084 -24.19373773 53.5355682 -25.88500977 50.31445312 C-28.55092522 43.25200825 -28.48965367 36.1020161 -28.44604492 28.66137695 C-28.43750204 26.43803175 -28.46642495 24.21723546 -28.49804688 21.99414062 C-28.53525735 14.47198561 -28.36979084 8.41437188 -24 2 C-17.08541339 -4.74172194 -8.21449471 -4.58116051 0 0 Z " fill="#FFFAF9" transform="translate(324,166)"/>
<path d="M0 0 C3.96 0 7.92 0 12 0 C15.02157258 13.94492089 18.02189915 27.89449152 20.875 41.875 C21.08987061 42.90681396 21.30474121 43.93862793 21.52612305 45.00170898 C22.48195927 49.73667133 23.28007425 54.13988809 23 59 C19.7 59 16.4 59 13 59 C12.67 57.618125 12.34 56.23625 12 54.8125 C11.814375 54.03519531 11.62875 53.25789063 11.4375 52.45703125 C11 50 11 50 11 45 C7.7 45 4.4 45 1 45 C1.061875 46.2375 1.061875 46.2375 1.125 47.5 C0.97786007 51.61991815 0.09476605 55.03147307 -1 59 C-4.3 59 -7.6 59 -11 59 C-10.39605383 51.98584503 -9.38136266 45.21355146 -7.96875 38.3203125 C-7.77277222 37.34512665 -7.57679443 36.3699408 -7.37487793 35.36520386 C-6.75444694 32.28420134 -6.12722391 29.20462593 -5.5 26.125 C-5.07900301 24.03654378 -4.65842632 21.94800278 -4.23828125 19.859375 C-3.46921594 16.04784721 -2.69994385 12.2363685 -1.92382812 8.42626953 C-1.76918091 7.66589386 -1.61453369 6.90551819 -1.4552002 6.12210083 C-1.01527187 4.07119605 -0.50873241 2.03492965 0 0 Z " fill="#FFF5F4" transform="translate(318,68)"/>
<path d="M0 0 C3.96 0 7.92 0 12 0 C13.4123723 6.79391214 14.81798217 13.58917645 16.2175293 20.38574219 C16.69389344 22.69438794 17.17205591 25.00266342 17.65209961 27.31054688 C18.34449614 30.64095262 19.03026818 33.97266646 19.71484375 37.3046875 C20.03520851 38.834991 20.03520851 38.834991 20.36204529 40.39620972 C21.62785441 46.596238 22.47231258 52.69299913 23 59 C19.7 59 16.4 59 13 59 C12.34 54.38 11.68 49.76 11 45 C7.7 45 4.4 45 1 45 C0.34 49.62 -0.32 54.24 -1 59 C-4.3 59 -7.6 59 -11 59 C-10.41123873 52.34511273 -9.52868071 45.88475691 -8.22265625 39.3359375 C-8.05124619 38.45902252 -7.87983612 37.58210754 -7.70323181 36.67861938 C-7.3431478 34.84130826 -6.98086507 33.00442676 -6.61645508 31.16796875 C-6.06269659 28.37599117 -5.51613936 25.58267658 -4.97070312 22.7890625 C-4.6176081 20.9921048 -4.2641063 19.19522698 -3.91015625 17.3984375 C-3.66786034 16.16219131 -3.66786034 16.16219131 -3.42066956 14.90097046 C-2.42381245 9.89104074 -1.27638631 4.94630659 0 0 Z " fill="#FFF7F6" transform="translate(424,68)"/>
<path d="M0 0 C8.25 0 16.5 0 25 0 C25 2.64 25 5.28 25 8 C20.38 8 15.76 8 11 8 C11 13.28 11 18.56 11 24 C14.63 24 18.26 24 22 24 C22 26.64 22 29.28 22 32 C18.37 32 14.74 32 11 32 C11 38.27 11 44.54 11 51 C15.62 51 20.24 51 25 51 C25 53.64 25 56.28 25 59 C16.75 59 8.5 59 0 59 C0 39.53 0 20.06 0 0 Z " fill="#FFF4F2" transform="translate(406,164)"/>
<path d="M0 0 C8.25 0 16.5 0 25 0 C25 2.64 25 5.28 25 8 C20.38 8 15.76 8 11 8 C11 13.28 11 18.56 11 24 C14.63 24 18.26 24 22 24 C22 26.64 22 29.28 22 32 C18.37 32 14.74 32 11 32 C11 38.27 11 44.54 11 51 C15.62 51 20.24 51 25 51 C25 53.64 25 56.28 25 59 C16.75 59 8.5 59 0 59 C0 39.53 0 20.06 0 0 Z " fill="#FFF6F5" transform="translate(337,164)"/>
<path d="M0 0 C8.25 0 16.5 0 25 0 C25 2.64 25 5.28 25 8 C20.38 8 15.76 8 11 8 C11 13.28 11 18.56 11 24 C14.63 24 18.26 24 22 24 C22 26.64 22 29.28 22 32 C18.37 32 14.74 32 11 32 C11 38.27 11 44.54 11 51 C15.62 51 20.24 51 25 51 C25 53.64 25 56.28 25 59 C16.75 59 8.5 59 0 59 C0 39.53 0 20.06 0 0 Z " fill="#FFF3F2" transform="translate(249,164)"/>
<path d="M0 0 C3.63 0 7.26 0 11 0 C11 16.83 11 33.66 11 51 C15.62 51 20.24 51 25 51 C25 53.64 25 56.28 25 59 C16.75 59 8.5 59 0 59 C0 39.53 0 20.06 0 0 Z " fill="#FFF4F3" transform="translate(347,68)"/>
<path d="M0 0 C3.63 0 7.26 0 11 0 C11 19.47 11 38.94 11 59 C7.37 59 3.74 59 0 59 C0 39.53 0 20.06 0 0 Z " fill="#FFF7F6" transform="translate(210,68)"/>
<path d="M0 0 C2.97266162 0.44589924 3.65633126 1.06486284 5.5 3.375 C5.78620281 6.28169453 5.89646792 8.96952399 5.86328125 11.875 C5.86377975 12.70708984 5.86427826 13.53917969 5.86479187 14.39648438 C5.86245236 16.15497222 5.85273102 17.91346347 5.83618164 19.671875 C5.81258859 22.36488765 5.81562149 25.05691027 5.82226562 27.75 C5.81668877 29.45833924 5.80957885 31.16667431 5.80078125 32.875 C5.80214836 34.08446289 5.80214836 34.08446289 5.80354309 35.31835938 C5.75447945 39.18331979 5.69264189 41.08603717 3.5 44.375 C0 44.6875 0 44.6875 -3.5 44.375 C-6.12346892 41.75153108 -5.75936502 39.8524326 -5.80354309 36.27919006 C-5.80263168 35.44584641 -5.80172028 34.61250275 -5.80078125 33.75390625 C-5.80506638 32.89820541 -5.8093515 32.04250458 -5.81376648 31.16087341 C-5.81951468 29.34936407 -5.82000644 27.53783164 -5.81567383 25.72631836 C-5.8125164 22.95191095 -5.83595741 20.17857214 -5.86132812 17.40429688 C-5.86360129 15.64583468 -5.86430453 13.88736961 -5.86328125 12.12890625 C-5.872491 11.29758682 -5.88170074 10.4662674 -5.89118958 9.60975647 C-5.84451042 3.80837118 -5.84451042 3.80837118 -4.13298035 1.65538025 C-2.5 0.375 -2.5 0.375 0 0 Z " fill="#FF3C23" transform="translate(492.5,170.625)"/>
<path d="M0 0 C7 0 7 0 9.40209961 1.00048828 C11.85091922 4.06478661 11.59105172 7.23421626 11.56640625 10.9921875 C11.57570412 12.16661911 11.57570412 12.16661911 11.58518982 13.36477661 C11.59229081 15.02067828 11.58910897 16.67665129 11.57641602 18.33251953 C11.56258349 20.8597461 11.5965687 23.3832446 11.63476562 25.91015625 C11.6357172 27.52083424 11.63385596 29.13151684 11.62890625 30.7421875 C11.64216446 31.49442596 11.65542267 32.24666443 11.66908264 33.021698 C11.60099223 36.88274442 11.10548918 38.85299342 8.83569336 42.01611328 C6 44 6 44 0 44 C0 29.48 0 14.96 0 0 Z " fill="#FF4730" transform="translate(387,76)"/>
<path d="M0 0 C7 0 7 0 9.40209961 1.50805664 C11.5817297 4.90721391 11.59303398 7.95600654 11.56640625 11.87109375 C11.57570412 13.01010887 11.57570412 13.01010887 11.58518982 14.1721344 C11.59228001 15.77498088 11.5891278 17.37790113 11.57641602 18.98071289 C11.56256129 21.42667985 11.59661015 23.86880995 11.63476562 26.31445312 C11.63571703 27.87500093 11.63385687 29.43555351 11.62890625 30.99609375 C11.64216446 31.72332138 11.65542267 32.45054901 11.66908264 33.19981384 C11.59977043 37.00157069 11.07839726 38.89132273 8.83569336 42.00024414 C6 44 6 44 0 44 C0 29.48 0 14.96 0 0 Z " fill="#FF4730" transform="translate(463,76)"/>
<path d="M0 0 C7 0 7 0 8.91040039 0.99829102 C10.64872331 4.1917729 10.44730304 7.48087132 10.43359375 11.02734375 C10.4388356 11.81266983 10.44407745 12.59799591 10.44947815 13.40711975 C10.45589822 15.0672182 10.4545615 16.72736215 10.44604492 18.38745117 C10.43754141 20.92514275 10.46628235 23.46057814 10.49804688 25.99804688 C10.49965919 27.61197849 10.49908077 29.22591409 10.49609375 30.83984375 C10.51294472 31.97594337 10.51294472 31.97594337 10.53013611 33.13499451 C10.48543267 36.52201761 10.22688208 38.6561146 8.34399414 41.51000977 C6 43 6 43 0 43 C0 28.81 0 14.62 0 0 Z " fill="#FF3B23" transform="translate(221,172)"/>
<path d="M0 0 C8 0 8 0 10 1.5625 C11.3799145 4.9260416 11.37974846 7.39238959 11 11 C8.8 15.6 8.8 15.6 6 17 C4.02 17 2.04 17 0 17 C0 11.39 0 5.78 0 0 Z " fill="#FF4128" transform="translate(448,172)"/>
<path d="M0 0 C3.3 0 6.6 0 10 0 C8.23570801 4.97209562 5.6060834 9.43438061 3 14 C1.02 14 -0.96 14 -3 14 C-2.40380045 9.13103697 -1.43023178 4.67209049 0 0 Z " fill="#FFF5F4" transform="translate(350,145)"/>
<path d="M0 0 C0.33 0 0.66 0 1 0 C1.99 6.93 2.98 13.86 4 21 C1.69 21 -0.62 21 -3 21 C-3.26242569 14.17693216 -2.46285265 7.67359785 -1 1 C-0.67 0.67 -0.34 0.34 0 0 Z " fill="#FF4F39" transform="translate(324,85)"/>
<path d="M0 0 C0.66 0 1.32 0 2 0 C3.25841946 6.74153283 4.26404456 13.13484138 4 20 C2.02 20 0.04 20 -2 20 C-2.22731216 13.06697907 -1.42002108 6.7831364 0 0 Z " fill="#FF4831" transform="translate(429,86)"/>
</svg>
